<?xml version="1.0" standalone="no"?>
<!DOCTYPE svg PUBLIC "-//W3C//DTD SVG 1.1//EN" "http://www.w3.org/Graphics/SVG/1.1/DTD/svg11.dtd">
<svg xmlns="http://www.w3.org/2000/svg">
<metadata>Copyright (C) 2017 by original authors @ fontello.com</metadata>
<defs>
<font id="fontello" horiz-adv-x="1000" >
<font-face font-family="fontello" font-weight="400" font-stretch="normal" units-per-em="1000" ascent="850" descent="-150" />
<missing-glyph horiz-adv-x="1000" />
<glyph glyph-name="ar-icon-compass" unicode="&#xe800;" d="M994 844l-62 63c-8 8-20 8-28 2l-146-102c-6-4-10-10-10-16 0-5 2-11 6-17l39-39-414-414-74 72c-8 8-22 8-30 0-7-8-7-21 0-29l30-30-260-259c-16-16-23-35-23-59 0-22 7-43 23-59 16-15 37-23 59-23 23 0 43 8 60 23l258 260 29-29c4-4 10-6 16-6 4 0 10 2 14 6 7 8 7 21 0 29l-73 74 414 415 35-34c4-4 10-7 16-7 0 0 0 0 0 0 6 1 12 3 16 9l107 143c6 8 6 19-2 27z m-861-857c-16-16-43-16-59 0-8 7-11 19-11 29 0 12 3 22 11 29l260 260 59-58z m736 730l-68 69 113 78 37-37z m-623-172l147-144 29 29-156 154c-6 8-16 8-24 6-54-23-117-11-160 30-33 35-49 82-39 128l61-56c3-4 9-6 15-6l82 0c12 0 22 10 22 21l0 83c0 5-2 11-6 13l-57 65c47 9 94-6 129-39 43-43 55-106 31-161-4-7-2-17 4-23l157-156 29 29-147 147c24 68 6 142-45 193-54 55-132 68-203 39-6-2-9-8-11-14-2-8 0-13 5-19l73-82 0-55-55 0-80 74c-6 6-12 8-20 6-5-2-11-6-13-12-30-70-14-150 39-205 51-50 125-66 193-45z m500-261l-148 146-30-29 157-156c6-6 15-8 23-4 55 23 117 9 160-32 35-35 49-84 39-130l-64 60c-4 4-10 6-14 6l-84 0c-12 0-21-10-21-22l0-83c0-4 2-10 6-14l62-63c-47-10-96 4-131 39-41 43-53 106-31 161 4 7 2 17-4 23l-156 156-29-29 146-147c-21-68-6-142 45-193 37-35 84-55 133-55 25 0 49 4 74 16 6 2 10 8 12 14 2 7 0 13-6 19l-78 82 0 53 54 0 84-76c4-6 12-6 18-6 6 2 12 6 16 12 29 72 13 152-41 207-51 51-125 68-192 45z" horiz-adv-x="1000" />

<glyph glyph-name="emo-wink" unicode="&#xe801;" d="M261 800c-60 0-109-65-109-144 0-80 49-145 109-145s110 65 110 145c0 79-49 144-110 144z m343-98c-29 0-54-24-54-54 0-30 25-54 54-54l267 0c30 0 54 24 54 54 0 30-24 54-54 54l-267 0z m342-501c-13 0-27-5-37-16-4-4-8-8-12-12-111-109-253-164-396-165-142-2-285 50-396 155l-3 3-12 12c-21 21-54 20-75-1-20-21-20-55 1-76 3-4 8-8 14-14l3-3c132-124 301-186 469-184 169 1 337 67 468 195 5 5 9 10 14 14 20 22 20 56-1 77-10 10-23 15-37 15z" horiz-adv-x="999" />

<glyph glyph-name="uniE05F" unicode="&#xe802;" d="M500 851c-276 0-501-225-501-501s225-501 501-501 501 225 501 501-225 501-501 501z m0-969c-258 0-468 210-468 468s210 468 468 468 468-210 468-468-210-468-468-468z m109 749h-83c-106 1-120-64-120-135v-52h-47c-9 1-16-7-15-16v-94c-1-9 6-16 15-15h47v-235c-1-9 7-16 16-15h95c10-1 17 6 14 15l0 235h78c10-1 17 6 16 15v94c1 9-6 17-16 16h-78l0 47c3 20 3 16 22 15h56c4 1 9 1 12 4s5 7 4 12v94c1 9-6 16-16 15z m-16-92l-39 2c-49 0-53-27-53-54l0-59c0-4 2-8 5-12 3-3 7-4 11-4h77v-61h-76c-10 0-17-7-17-17l0-234h-63v234c0 10-7 17-16 17h-47v60h47c4 0 9 2 12 5 3 4 4 8 4 12v68c0 70 14 103 88 103h67v-60z" horiz-adv-x="1000" />

<glyph glyph-name="uniE060" unicode="&#xe803;" d="M500 851c-276 0-501-225-501-501s225-501 501-501 501 225 501 501-225 501-501 501z m0-969c-258 0-468 210-468 468s210 468 468 468 468-210 468-468-210-468-468-468z m275 623c3 6 6 13 8 20 2 7 0 14-5 18-6 4-13 5-19 1-16-9-33-16-51-21-22 20-51 31-81 31-65 0-119-53-119-119 0-2 0-3 0-5-70 9-134 44-179 99-3 5-9 7-14 6-6 0-11-3-13-8-11-18-16-39-16-60 0-20 5-39 14-56-3 0-5-1-7-3-5-3-8-9-8-15 0-35 15-68 41-90 0 0-1 0-1-1-4-4-5-10-4-16 11-34 37-61 69-74-33-16-71-22-107-18-7 1-15-4-17-11-3-7 0-15 6-20 50-32 108-48 167-48 193 0 308 156 308 308 0 2 0 4 0 5 19 15 35 32 48 52 4 6 4 14-1 20-5 6-12 8-19 5z m-55-55c-4-3-7-9-7-14 1-5 1-9 1-13 0-135-103-275-275-275-31 0-62 5-91 15 35 7 67 22 95 44 6 4 8 11 6 18-2 7-8 11-16 12-27 0-53 14-68 36 8 0 16 2 23 4 8 2 13 9 12 16 0 8-5 15-13 16-31 7-56 30-65 60 8-2 17-4 25-4 8 0 14 5 17 12s-1 15-7 19c-24 16-38 42-38 71 0 7 1 14 2 21 55-56 128-89 206-93 5 0 10 2 13 6s5 9 4 14c-2 7-2 13-2 20 0 47 38 86 85 86 24 0 47-10 63-27 4-5 10-6 16-5 5 1 10 2 15 3-2-1-5-3-7-4-7-4-10-13-7-20s10-12 17-11c2 0 4 0 6 0-3-2-6-5-10-7z" horiz-adv-x="1000" />

<glyph glyph-name="uniE601" unicode="&#xe804;" d="M973 350h-27c0-123-50-235-131-315-80-81-192-131-315-131s-235 50-315 131c-81 80-131 192-131 315s50 235 131 315c80 81 192 131 315 131s235-50 315-131c81-80 131-192 131-315h54c0 276-224 500-500 500-276 0-500-224-500-500 0-276 224-500 500-500 276 0 500 224 500 500h-27z m-296-201l49 23-226 477-226-476 49-24 60 125h234l60-125z m-269 178l92 194 92-194h-184z" horiz-adv-x="1000" />

<glyph glyph-name="uniE602" unicode="&#xe805;" d="M270 102c-33 4-60-15-70-55l-43-151c-9-33-41-51-74-42l-38 11c-32 8-52 43-43 74l101 358c9 33 41 50 75 42l40-9c20-6 42-24 44-43 0-14 7-22 24-27 25-7 43-31 44-58v-40c2-34-26-61-59-61h0l-1 1z m293-206l-245 867c-10 33 9 68 44 75l39 9c31 6 62-9 72-42l242-866c10-32-9-65-39-74l-40-13c-32-9-65 11-73 44z m800-45h-41c-36 0-63 27-63 62v876c0 33 27 60 61 60h43c34 0 61-27 61-60v-294c0-30 25-54 55-54h83c34 0 61-28 61-62v-43c0-32-27-61-60-61h-84c-30 0-55-25-55-55v-307c0-35-27-62-61-62z m289 895v42c0 34 27 61 62 61h215c30 0 58-27 58-61v-42c0-34-28-61-58-61h-215c-35 0-62 27-62 61z m872-824v866c0 34 28 61 62 61h41c33 0 60-27 60-61v-866c0-34-27-61-60-61h-41c-34 0-62 27-62 61z m377 853c0 35 28 62 63 62 187 0 314-151 314-289s-63-196-133-236c-68-39-41-67-24-100l127-254c15-30 6-66-24-82l-35-18c-30-15-70-6-85 25l-212 411c-17 30-10 67 22 82l56 26c81 37 122 77 120 147-1 53-42 125-127 125-34 0-62 27-62 60v41z m918-862v875c0 34 27 61 61 61h43c34 0 62-27 62-61v-875c0-35-28-62-62-62h-43c-34 0-61 27-61 62z m849 920c28 16 63 27 85 3l27-31c27-30 17-70-7-93-24-25-83-66-83-127v-467c0-61 59-102 83-126 25-25 36-64 8-94l-28-31c-24-24-58-13-85 3-73 41-143 101-143 226v511c0 124 70 185 143 226z m444-705c3 27 15 44 51 44h68c30 0 43-14 43-41v-30c0-55-59-187-147-231-30-15-62-30-88-3l-29 29c-30 44-26 62-2 85 35 20 99 85 105 148l-1-1z m-103 592c-25 24-29 42 1 85l31 29c26 28 57 13 87-2 87-44 146-176 146-231l-2-30c0-28-12-41-42-41l-67-2c-36 0-48 17-50 44-5 62-68 128-104 147v1z m1075-618c-33 4-60-15-70-55l-42-151c-10-33-41-51-74-42l-39 11c-31 8-52 43-42 74l100 358c9 33 41 50 75 42l40-9c21-6 43-24 44-43 0-14 7-22 25-27 24-7 42-31 43-58v-40c2-34-26-61-59-61v0l-1 1z m294-206l-246 867c-9 33 10 68 44 75l40 9c30 6 62-9 71-42l243-866c9-32-10-65-40-74l-40-13c-31-9-64 11-72 44z" horiz-adv-x="6533.2" />

<glyph glyph-name="uniE603" unicode="&#xe806;" d="M500-150c-276 0-500 224-500 500s224 500 500 500c276 0 500-224 500-500s-224-500-500-500z m0 946c-246 0-446-200-446-446 0-246 200-446 446-446 246 0 446 200 446 446 0 246-200 446-446 446z m-65-658h-54v451h153v-54h-99z m95 123v54c61 0 111 49 111 110 0 61-50 110-111 110v54c91 0 165-73 165-164 0-91-74-164-165-164z m-122 54h122v-54h-122v54z" horiz-adv-x="1000" />

<glyph glyph-name="uniE604" unicode="&#xe807;" d="M500-150c-276 0-500 224-500 500s224 500 500 500c276 0 500-224 500-500s-224-500-500-500z m0 946c-246 0-446-200-446-446s200-446 446-446c246 0 446 200 446 446s-200 446-446 446z m0-685c-58 0-168 35-168 168h53c0-113 110-114 115-114 5 0 115 1 115 83 0 58-42 70-114 87-66 16-148 35-148 129 0 39 13 69 37 91 44 40 110 34 113 34 0 0 0 0 0 0 39 0 123-25 145-119l-53-12c-17 76-92 77-95 77-3 0-48 4-74-20-13-11-19-28-19-51 0-47 32-59 106-76 66-16 155-37 155-140 0-109-110-137-168-137z" horiz-adv-x="1000" />

<glyph glyph-name="uniE605" unicode="&#xe808;" d="M500-150c-276 0-500 224-500 500 0 276 224 500 500 500 276 0 500-224 500-500 0-276-224-500-500-500z m0 946c-246 0-446-200-446-446 0-246 200-446 446-446 246 0 446 200 446 446 0 246-200 446-446 446z m-179-245h359v-53h-359v53z m152-27h54v-424h-54v424z" horiz-adv-x="1000" />

<glyph glyph-name="uniE606" unicode="&#xe809;" d="M401 776c40-46 60-115 60-206 0-91-20-160-60-207-44-50-108-75-194-75h-80v-435h-47v483h127c70 0 122 19 156 57 33 38 50 97 50 177 0 79-17 138-50 176-34 38-86 57-156 57h-207v47h207c86 0 150-25 194-74z m-354-923h-47v917h47v-917z m335 717c0-71-14-123-42-154s-72-48-133-48h-127v402h127c61 0 106-15 133-46 28-31 42-83 42-154z m-255-154h80c35 0 59 4 72 12 12 8 21 14 24 19 20 22 30 63 30 123 0 32-3 59-8 78-6 20-13 36-24 46-10 11-23 19-39 23-16 4-34 6-55 6h-80v-307z m1080 356c38-49 57-117 57-205v-430c0-89-19-158-57-205-7-9-16-18-26-27-11-10-23-18-38-26s-32-14-51-19c-19-5-41-7-65-7-49 0-87 8-116 26-28 18-49 35-64 54-38 46-57 115-57 204v430c0 88 19 156 57 205 15 18 36 35 64 52 29 17 67 26 116 26 49 0 87-9 116-26 28-17 50-34 64-52z m10-205c0 77-16 135-48 175-32 40-80 61-142 61-62 0-109-21-142-61-32-40-47-98-47-175v-430c0-77 15-135 47-175 33-41 81-62 142-62 61 0 109 21 142 62 32 40 48 98 48 175v430z m-190 203c53 0 92-16 116-48 28-33 41-84 41-155v-430c0-136-52-205-157-205s-157 69-157 205v430c0 71 14 122 41 155 24 32 63 48 116 48z m110-203c0 39-4 69-12 90-7 21-17 37-29 46-12 10-24 15-36 17-13 2-24 3-33 3-10 0-21-1-33-3-12-2-24-7-36-17-12-9-21-25-29-46-8-21-11-51-11-90v-430c0-40 3-70 11-91 8-22 17-37 29-46 12-10 24-16 36-17 12-2 23-3 33-3 9 0 20 1 33 3 12 1 24 7 36 17 12 9 22 24 29 46 8 21 12 51 12 91v430z m859-227c24-24 43-52 56-84 13-32 20-69 20-111v-295h-49v295c0 67-19 120-58 158-16 15-35 27-57 37 76 29 114 103 114 223 0 80-17 140-49 177-33 39-86 59-157 59h-207v48h207c86 0 150-25 193-75 40-46 60-116 60-209 0-92-20-162-60-210-1-1-3-4-6-6s-4-5-7-7z m-340-490h-47v918h47v-918z m144 508h-111v410h127c61 0 106-16 133-48 27-32 40-85 40-157 0-73-13-125-40-157-27-32-72-48-133-48h-16z m143-508v295c0 88-42 131-127 131h-80v-426h-47v475h127c56 0 99-16 130-47 31-31 46-75 46-133v-295h-49z m-191 555h64c34 0 58 4 71 12 13 8 21 14 25 19 20 25 30 68 30 127 0 33-3 60-8 81-6 20-14 36-24 47-10 11-23 19-39 22-16 4-34 6-55 6h-80v-314h16z m864 394h-267v48h564v-48h-297z m0-949h-49v869h-218v49h267v-918z m31 918h266v-49h-217v-869h-49v918z m1030 79v-732c0-83-19-146-55-191-13-18-33-35-61-50-26-16-63-24-108-24-45 0-81 8-108 24-27 15-47 32-61 50-36 45-54 108-54 191v732h47v-732c0-71 15-125 45-161 30-38 74-57 131-57 59 0 103 19 132 57 29 36 44 90 44 161v732h48z m-320 0v-732c0-34 4-61 10-80 7-18 15-32 25-41 10-9 21-13 32-15 10-1 20-2 29-2 9 0 19 1 30 2 11 2 21 6 31 15 10 9 18 23 25 41 7 19 10 46 10 80v732h48v-732c0-64-12-111-37-142-22-29-58-43-107-43-48 0-83 14-107 43-24 31-36 78-36 142v732h47z m1119-345v64c0 77-16 135-47 174-32 40-79 60-144 60-63 0-110-20-142-60-31-39-47-97-47-174v-430c0-78 16-137 47-176 33-41 80-61 142-61 64 0 111 20 144 61 31 39 47 98 47 176v155h-235v48h283v-203c0-90-20-158-59-206-14-18-35-36-64-53-28-17-67-26-116-26-48 0-87 9-115 26-28 17-49 35-63 53-39 48-58 116-58 206v430c0 88 19 156 58 204 40 53 100 79 179 79 79 0 139-26 179-79 39-48 59-116 59-204v-64h-48z m-81 0v64c0 36-3 64-9 84-7 21-15 36-25 46-11 11-23 17-36 20-13 3-26 4-40 4s-26-1-39-4c-13-3-25-9-36-20-10-10-18-25-25-46-6-20-9-48-9-84v-430c0-40 4-71 11-92 8-21 18-36 30-46 11-9 23-15 35-17 13-2 24-2 34-2 9 0 21 0 33 2s25 8 36 17c12 10 21 25 29 46 7 21 11 52 11 92v75h-154v48h203v-123c0-72-14-124-41-156-24-33-63-49-117-49-54 0-93 16-117 49-27 32-40 84-40 156v430c0 70 13 122 40 154 25 33 64 49 117 49 52 0 91-16 117-49 27-32 41-84 41-154v-64h-49z m775 345l232-997h-50l-218 941h-30l-218-941h-48l231 997h101z m-175-671h248l76-326h-48l-65 277h-174l-63-277h-50l76 326z m6 31l118 505 116-505h-234z m175 49l-57 244-57-244h114z m601-357h387v-48h-435v998h48v-950z m32 950h47v-871h308v-47h-355v918z" horiz-adv-x="6164.1" />

<glyph glyph-name="uniE607" unicode="&#xe80a;" d="M672 624c-37 0-52 22-52 47 0 41 41 35 41 65 0 42-37 81-90 81-75 0-116-51-116-119 0-156 160-304 160-528 0-149-120-320-349-320-165 0-266 98-266 218 0 97 93 191 184 191 85 0 150-63 150-139 0-51-30-128-94-128-32 0-48 28-48 51 0 57 67 70 67 114 0 36-36 69-75 69-56 0-114-60-114-149 0-81 66-194 196-194 179 0 256 128 256 252 0 166-164 350-164 508 0 104 80 207 216 207 91 0 159-74 159-145 0-43-25-81-61-81z m329-308c-36 0-57 3-80 6l-24-96c-2-12-4-23-4-31 0-25 13-38 63-46 3 0 4-3 4-7 0-8-4-18-8-18-48 0-76 6-124 6-47 0-68-6-111-6-1 0-3 2-3 9 0 7 4 16 8 16 72 11 73 30 84 77l63 269c3 11 5 21 5 30 0 25-13 38-64 45-2 0-3 4-3 7 0 10 3 19 8 19 48 0 59-5 105-5 40 0 68 5 113 5 107 0 165-43 165-129 0-89-103-151-197-151z m28 250c-44 0-53-12-64-55l-32-139c-5-22 3-28 43-28 73 0 127 55 127 131 0 62-25 91-74 91z m578-442c-48 0-54 6-104 6-56 0-74-6-122-6-2 0-5 4-5 12 0 8 1 13 5 13 51 4 63 19 63 51 0 8-1 17-2 27l-6 56h-146l-28-47c-9-14-19-36-19-49 0-22 14-36 45-38 3 0 5-4 5-11 0-8-2-14-5-14-42 0-51 6-100 6-40 0-50-6-84-6-2 0-6 3-6 14 0 7 2 11 5 11 58 7 71 33 111 91l249 362c3 4 6 7 14 7 6 0 12-3 12-9l42-366c8-57 11-75 76-85 3 0 5-4 5-12s-2-13-5-13z m-192 351l-106-163h124l-18 163z m565 95c-72-10-72-29-83-75l-64-269c-2-12-5-23-5-31 0-25 14-38 64-46 3 0 4-3 4-7 0-8-4-18-8-18-48 0-76 6-124 6-47 0-68-6-111-6-1 0-3 2-3 9 0 7 4 16 8 16 72 11 73 30 84 77l63 269c3 11 5 21 5 30 0 25-13 38-64 45-2 0-3 4-3 7 0 10 3 19 8 19 48 0 75-5 123-5 47 0 68 5 111 5 2 0 4-2 4-9 0-8-4-16-9-17z m601 0c-54-8-68-31-76-76l-64-374c-1-6-5-9-12-9-4 0-12 5-13 7l-260 359-43-251c-7-45-1-69 55-77 3 0 4-3 4-7 0-8-4-18-9-18-29 0-59 6-95 6-36 0-58-6-84-6-1 0-3 2-3 9 0 7 4 16 9 16 53 7 71 31 80 77l56 269c1 6 3 15 3 22 0 31-20 45-75 53-3 0-4 4-4 7 0 10 4 19 9 19 20 0 26-3 48-3 27 0 45 3 72 3l252-339 34 237c6 41-6 68-62 76-3 0-4 4-4 7 0 8 4 19 8 19 30 0 53-6 94-6 39 0 54 6 85 6 1 0 3-2 3-9s-3-16-8-17z" horiz-adv-x="2589.8" />

<glyph glyph-name="uniE608" unicode="&#xe80b;" d="M0 850h1198v-439h-17v35l-316 379h-105v-848l151-93h46v-18h-715v18h40l159 96v845h-106l-317-376v-36h-18v437z m1724 0h700v-18h-38l-153-93v-590c0-84 27-150 81-197 54-48 128-72 224-72 60 0 116 9 168 28 52 18 96 44 135 77 38 33 67 72 88 117 21 46 31 94 31 145v349l-155 237h-44v17h421v-18h-41l-153-231v-335c0-85-21-159-61-222-41-63-99-111-176-144-76-34-167-50-274-50-98 0-187 14-267 42-79 28-144 69-196 121-35 36-60 76-77 120-16 44-24 95-24 153v451l-156 96h-33v17z m1963 0h837c73 0 144-7 212-21 69-15 123-34 164-57 41-23 72-51 95-85 23-34 34-69 34-105 0-39-12-74-36-106-25-31-61-57-109-79-48-21-107-38-178-50s-151-18-239-19v-3c21-9 38-15 52-19 33-8 67-15 101-19 33-5 64-7 92-7h93l176-300 157-96h41v-18h-494l-271 460h-219v-347l157-95h32v-18h-700v18h35l154 96v759l-154 93h-32v18z m508-23v-475h242c62 0 112 9 152 26 40 17 71 43 91 78 20 36 30 80 30 133 0 159-95 238-285 238h-230z m1469 23h697v-18h-36l-151-92v-427l533 424-186 95h-34v18h506v-18h-33l-210-93-235-189 472-571 172-95h36v-18h-740v18h35l91 95-314 376-93-76v-300l155-95h32v-18h-697v18h33l153 95v760l-153 93h-33v18z m2002 0h1188v-360h-14v26l-302 308h-360v-433h158l190 196v57h17v-507h-16v77l-187 152h-164v-475h364l314 344 3 32h13l-20-401h-1180v18h37l153 95v758l-158 96h-36v17z m1669 0h822v-18h-39l-155-92 377-392 228 294-157 190h-43v18h473v-18h-44l-196-188-250-325v-340l151-95h37v-18h-697v18h31l159 96v236l-508 521-153 95h-36v18z" horiz-adv-x="10841.8" />

<glyph glyph-name="uniE609" unicode="&#xe80c;" d="M0-143c14 13 27 31 40 55 14 24 27 52 39 84 12 31 22 66 31 103 10 37 17 75 21 115 4-40 11-78 21-115 10-37 22-71 35-103s27-59 42-83c15-24 29-42 44-56h-273z m667 325c-13-40-26-81-39-123-14-43-26-84-38-121-13-38-21-65-27-81h-48c-13 36-29 77-47 123-17 46-36 94-56 145-20 50-40 101-61 152s-40 100-58 146c-18 46-35 88-51 126-15 38-27 69-36 92-24 62-50 110-78 142-29 32-64 54-105 66h344c4-15 13-39 27-73 13-34 28-73 45-116 16-43 33-87 51-133 18-46 34-89 49-127 15-39 32-82 51-131 6-15 13-26 21-34 7-9 16-13 25-14 9-1 19 3 29 11s22 22 32 41c-8-21-18-52-30-91z m143-325c6 9 13 21 19 36 6 16 12 33 17 54 5 20 9 41 12 64 3 22 5 45 6 68 0 18 1 45 2 83 1 37 2 79 3 124 1 46 1 92 2 138 0 45 1 85 1 119 0 47-8 74-23 80-15 7-32-1-51-26 44 97 77 180 97 252h225c-8-21-14-42-17-65-4-23-7-53-10-89-2-36-4-82-4-137-1-54-1-124-1-209 0-61 0-115 0-160 0-44 1-80 3-108 1-23 2-46 4-69 2-24 5-45 8-65 4-21 8-39 13-55 4-15 11-27 18-35h-324z m1128 68c-52 33-95 72-130 118-34 47-60 98-77 153-17 56-25 112-24 169 1 56 10 111 28 165 17 54 43 103 77 147 34 44 76 81 127 112 50 30 109 50 175 60-26-20-48-46-68-80-19-33-35-72-48-114-13-43-23-90-29-139-6-50-9-100-9-151 0-51 3-101 10-150 7-49 17-95 30-139 14-44 30-85 51-122 20-38 44-70 72-97-71 13-133 35-185 68z m386 29c21 37 38 78 51 122 14 44 24 90 31 139 6 49 10 99 10 150 0 51-3 101-10 151-6 49-15 96-28 139-13 42-30 81-49 114s-42 60-68 80c67-10 125-30 176-60 51-31 94-68 128-112 34-44 60-93 77-147 18-54 26-109 26-165 0-57-8-113-25-169-17-55-42-106-76-153-35-46-78-85-130-118-53-33-114-55-184-68 27 27 50 59 71 97z m923-97c13 23 24 70 33 141 4 31 7 75 8 130 1 56 2 120 2 191 0 74-1 144-3 211-2 66-5 121-8 164-3 34-9 65-18 94-8 29-17 49-24 61h284c-2-13-4-33-6-62-2-28-4-58-5-89-2-29-4-63-4-101-1-37 0-80 1-129 0-48 0-94 1-141 1-47 2-91 4-133 1-42 3-79 5-113 2-34 4-61 6-81 3-36 7-66 13-92s10-43 14-51h-303z m567 0c-13 6-26 19-38 39-12 20-22 43-28 68-7 26-15 55-23 88-9 33-18 65-27 97-9 33-18 62-28 90-9 27-18 48-26 61-14 22-24 38-33 47-8 9-18 18-31 25 9 3 20 6 34 8 13 2 28 2 44 2 33 0 68-4 105-13 37-8 66-23 87-44 24-24 44-56 59-94 15-39 28-78 41-120 9-31 19-60 28-89 9-29 20-55 32-78 13-22 25-40 36-52 12-12 26-23 44-35h-276z m-62 775c0 44-9 86-27 124-17 39-42 69-74 93 60 0 110-5 151-16 41-10 74-24 99-42 25-18 43-40 54-64 11-25 16-52 16-82 0-29-6-57-19-84-13-28-32-52-58-74-25-21-57-39-94-52-37-14-79-21-126-22 52 67 78 140 78 219z m1035-707c-52 33-96 72-130 118-35 47-61 98-77 153-17 56-25 112-24 169 1 56 10 111 27 165 18 54 43 103 77 147 35 44 77 81 127 112 51 30 109 50 176 60-26-20-49-46-68-80-19-33-35-72-48-114-13-43-23-90-29-139-7-50-10-100-10-151 0-51 4-101 10-150 7-49 17-95 31-139 13-44 30-85 50-122 20-38 45-70 72-97-71 13-132 35-184 68z m386 29c20 37 37 78 51 122 13 44 23 90 30 139 7 49 10 99 10 150 0 51-3 101-9 151-6 49-16 96-29 139-13 42-29 81-48 114-20 34-42 60-68 80 66-10 125-30 176-60 51-31 94-68 128-112 34-44 60-93 77-147 17-54 26-109 26-165 0-57-9-113-25-169-17-55-43-106-77-153-34-46-77-85-130-118s-114-55-184-68c27 27 51 59 72 97z m1655 26c-15-20-36-40-62-59-27-20-60-36-99-50-39-14-88-21-146-21-78 0-146 14-204 43-58 29-106 67-145 114-39 47-67 101-87 161-19 60-28 122-28 184 0 70 11 133 33 191 22 57 52 108 88 151 38 44 80 78 129 105 48 26 99 43 152 51-44-39-81-96-111-170-30-74-45-159-45-256 0-78 10-147 31-204 20-57 47-104 80-142 33-37 71-65 113-84 42-18 86-27 131-27 39 0 75 5 109 16 34 12 66 27 96 46-8-13-20-29-35-49z m-25 641c-19 35-39 68-62 99-22 31-47 58-73 80s-52 39-79 50c44 0 90-5 137-16 47-10 88-21 121-32 0-18 0-43 0-76 0-32 0-64 0-95 0-31 0-58 0-81v-35c-11 35-26 70-44 106z m1342-641c-14-20-35-40-62-59-26-20-59-36-98-50-40-14-88-21-146-21-78 0-146 14-204 43-59 29-107 67-145 114-39 47-68 101-87 161-19 60-29 122-29 184 0 70 11 133 33 191 22 57 52 108 89 151 37 44 80 78 129 105s99 43 152 51c-44-39-82-96-111-170-30-74-45-159-45-256 0-78 10-147 30-204 20-57 47-104 80-142 33-37 71-65 114-84 42-18 86-27 131-27 38 0 75 5 109 16 34 12 66 27 96 46-9-13-21-29-36-49z m-25 641c-18 35-39 68-61 99-23 31-47 58-73 80s-52 39-79 50c44 0 89-5 137-16 47-10 87-21 121-32 0-18 0-43 0-76 0-32 0-64 0-95 0-31 0-58 0-81v-35c-12 35-27 70-45 106z m803-696c-52 33-96 72-130 118-35 47-61 98-78 153-16 56-24 112-23 169 1 56 10 111 27 165 17 54 43 103 77 147 34 44 77 81 127 112 51 30 109 50 176 60-26-20-49-46-68-80-20-33-36-72-49-114-13-43-22-90-28-139-7-50-10-100-10-151 0-51 4-101 10-150 7-49 17-95 31-139 13-44 30-85 50-122 20-38 44-70 72-97-71 13-133 35-184 68z m386 29c20 37 37 78 51 122 13 44 23 90 30 139 7 49 10 99 10 150 0 51-3 101-9 151-6 49-16 96-29 139-13 42-29 81-48 114s-42 60-68 80c66-10 125-30 176-60 51-31 93-68 128-112 34-44 59-93 77-147 17-54 26-109 26-165 0-57-9-113-26-169-16-55-42-106-76-153-34-46-78-85-130-118-52-33-114-55-184-68 27 27 51 59 72 97z" horiz-adv-x="9652.3" />

<glyph glyph-name="uniE60A" unicode="&#xe80d;" d="M500-150c-276 0-500 224-500 500s224 500 500 500c276 0 500-224 500-500s-224-500-500-500z m0 946c-246 0-446-200-446-446s200-446 446-446c246 0 446 200 446 446s-200 446-446 446z m228-658h-53v359l-175-177-174 177v-359h-54v490l228-232 228 232z" horiz-adv-x="1000" />

<glyph glyph-name="uniE60B" unicode="&#xe80e;" d="M1000 350c0-276-224-500-500-500-276 0-500 224-500 500 0 276 224 500 500 500 276 0 500-224 500-500z m-964 0c0-256 208-464 464-464s464 208 464 464-208 464-464 464-464-208-464-464z m620 39l-26-25-130 130-130-130-25 25 155 156z m-174-218v349h36v-349h-36z" horiz-adv-x="1000" />

<glyph glyph-name="uniE60C" unicode="&#xe80f;" d="M0 350c0 276 224 500 500 500 276 0 500-224 500-500 0-276-224-500-500-500-276 0-500 224-500 500z m964 0c0 256-208 464-464 464s-464-208-464-464 208-464 464-464 464 208 464 464z m-619-39l25 25 130-130 130 130 26-25-156-156z m173 218v-349h-36v349h36z" horiz-adv-x="1000" />

<glyph glyph-name="uniE60D" unicode="&#xe810;" d="M500 850c276 0 500-224 500-500 0-276-224-500-500-500-276 0-500 224-500 500 0 276 224 500 500 500z m0-964c256 0 464 208 464 464s-208 464-464 464-464-208-464-464 208-464 464-464z m-39 620l25-26-130-130 130-130-25-25-156 155z m218-174h-349v36h349v-36z" horiz-adv-x="1000" />

<glyph glyph-name="uniE612" unicode="&#xe811;" d="M500-150c-276 0-500 224-500 500 0 276 224 500 500 500 133 0 259-52 353-146 95-95 147-220 147-354 0-276-224-500-500-500z m0 975c-262 0-475-213-475-475 0-262 213-475 475-475 262 0 475 213 475 475 0 127-50 246-139 336-90 89-209 139-336 139z m244-262h-189l-42 138c-2 6-7 9-13 9s-11-3-13-9l-42-138h-189c-7 0-13-6-13-13v-330c0-7 6-13 13-13h81l-62-200c-2-7 2-15 9-17 1 0 3 0 4 0 6 0 11 3 13 9l63 208h120v-178c0-7 6-13 13-13 7 0 13 6 13 13v178h126l63-208c2-6 7-9 13-9 1 0 3 0 4 0 7 2 11 10 9 17l-61 200h80c8 0 13 6 13 13v330c0 7-5 13-13 13z m-244 89l27-89h-54l27 89z m231-115v-114c-56-11-85-23-113-35-24-10-47-20-88-29-11 44-51 74-97 71-48-2-86-40-90-86-20-1-43-3-74-8v201h462z m-227-183c0 0-1-1-1-1-59-11-89-10-121-9-4 0-8 0-12 0 1 14 7 27 17 37 12 14 29 22 47 23 33 2 62-19 70-50z m142-120h-377v75c38 7 63 9 85 9 1 0 1-1 2-1 0 0 0 0 1 0 0 1 1 1 2 1 8 0 15 0 23-1 31 0 64-1 126 10 61 12 92 25 121 37 26 11 52 22 102 32v-162l-85 0z m-110 224c6 4 13 5 20 5 14 0 24-6 27-11 0 0 0-1 0-1 0 0 1-1 2-2 0 0 0 0 0-1 1 0 2-1 2-1 1 0 1 0 1 0 0 0 0-1 0-1 1 0 1 0 2 0 0 0 1-1 1-1 1 0 2 0 3 0h0c1 0 3 0 4 0 0 0 0 1 1 1 0 0 1 0 2 0 0 0 0 1 0 1 0 0 0 0 0 0 1 0 2 1 2 1 1 1 1 1 1 1 1 1 1 2 2 2 0 0 0 0 0 1 3 5 13 11 27 11 7 0 14-1 20-5 6-4 14-2 18 4 4 6 2 15-4 18-10 6-22 10-34 10-15 0-29-5-39-13-10 8-23 13-38 13-12 0-24-4-34-10-6-3-8-12-4-18 4-6 12-8 18-4z" horiz-adv-x="1000" />

<glyph glyph-name="uniE613" unicode="&#xe812;" d="M696 646h-263l-58 191c-3 8-10 13-18 13s-15-5-17-13l-59-191h-263c-10 0-18-9-18-19v-457c0-10 8-18 18-18h112l-84-278c-3-10 2-20 12-23 1-1 3-1 5-1 8 0 15 5 18 13l88 289h165v-247c0-10 9-18 19-18s18 8 18 18v247h175l88-289c2-8 9-13 17-13 2 0 4 0 6 1 9 3 15 13 12 23l-85 278h112c10 0 18 8 18 18v457c0 10-8 19-18 19z m-339 123l38-123h-75l37 123z m321-160v-157c-78-16-118-33-157-49-33-14-65-27-122-40-16 60-72 102-135 98-66-3-119-55-125-119-27-1-59-4-102-11v278h641z m-315-254c-1 0-1 0-2 0-82-16-123-15-167-14-6 0-12 1-18 1 3 19 11 37 24 51 17 19 40 30 66 32 45 2 85-27 97-70z m196-167h-522v105c52 10 87 12 118 12 0 0 1 0 2 0 0 0 1 0 1 0 1 0 2 0 3 0 11 0 22 0 32 0 44-1 89-3 175 14 85 16 127 33 168 50 37 16 72 31 142 45v-226l-119 0z m-152 312c8 5 18 7 28 7 19 0 33-8 37-16 0 0 0 0 0 0 1-2 2-3 3-3 0-1 0-1 0-1 1-1 2-2 3-3 1 0 1 0 1 0 0 0 0 0 0 0 1-1 2-1 3-1 0 0 1-1 1-1 2 0 4 0 5 0h0c2 0 3 0 5 0 0 0 1 1 1 1 1 0 2 0 3 1 0 0 0 0 0 0 0 0 0 0 1 0 1 1 2 2 3 3 0 0 0 0 0 0 1 1 2 2 3 4 0 0 0 0 0 0 4 8 18 16 37 16 10 0 20-2 28-7 8-5 20-3 25 6 6 8 3 20-6 25-13 8-30 13-47 13-20 0-39-6-53-17-14 11-33 17-53 17-17 0-34-5-47-13-9-5-11-17-6-25 5-9 17-11 25-6z" horiz-adv-x="714.8" />

<glyph glyph-name="uniE614" unicode="&#xe813;" d="M500-150c-276 0-500 224-500 500 0 276 224 500 500 500 133 0 259-52 353-146 95-95 147-220 147-354 0-276-224-500-500-500z m0 975c-262 0-475-213-475-475 0-262 213-475 475-475 262 0 475 213 475 475 0 127-50 246-139 336-90 89-209 139-336 139z m151-803h-164c-7 0-12 5-12 12s5 13 12 13h164c5 0 9 2 11 4 2 3 2 8 0 13l-90 201c-9 21-16 55-16 77v94c0 7 5 12 12 12s13-5 13-12v-94c0-19 6-49 14-67l90-201c5-13 5-26-2-36-6-11-18-16-32-16z m-138 0h-164c-14 0-26 5-32 16-7 10-7 23-1 36l89 201c8 18 14 48 14 67v94c0 7 6 12 13 12s13-5 13-12v-94c0-22-8-56-17-77l-89-201c-3-5-3-10-1-13s6-4 12-4h163c7 0 13-6 13-13s-6-12-13-12z m81 401h-188c-6 0-12 6-12 13s6 12 12 12h188c7 0 12-5 12-12s-5-13-12-13z m-126 57c-26 0-47 21-47 46s21 47 47 47c25 0 46-21 46-47 0-25-21-46-46-46z m0 68c-12 0-21-10-21-22s9-21 21-21c11 0 21 10 21 21s-10 22-21 22z m105 3c-33 0-60 26-60 59s27 60 60 60 59-27 59-60c0-33-26-59-59-59z m0 94c-19 0-35-16-35-35s16-34 35-34 34 15 34 34c0 19-15 35-34 35z m-139-4c-21 0-39 17-39 39s18 38 39 38c21 0 39-17 39-38 0-22-18-39-39-39z m0 52c-7 0-14-6-14-13s7-14 14-14c8 0 14 6 14 14s-6 13-14 13z m117-550c-21 0-43 5-64 18-44 26-91 7-106-6-5-5-13-5-18 1s-4 13 1 17c26 23 85 41 136 10 48-29 94-9 114 8 5 4 13 3 18-2 4-5 3-13-2-18-20-16-48-28-79-28z" horiz-adv-x="1000" />

<glyph glyph-name="uniE615" unicode="&#xe814;" d="M464-150h-218c-9 0-17 7-17 17s8 16 17 16h218c13 0 23 4 28 12 5 7 5 18-1 30l-115 259c-17 38-30 102-30 143v118c0 9 7 16 16 16 9 0 17-7 17-16v-118c0-37 12-96 27-130l115-258c10-23 10-45-1-62-11-17-32-27-56-27z m-181 0h-218c-25 0-45 10-56 27-11 17-12 39-2 62l115 258c15 34 28 94 28 130v118c0 9 7 16 16 16s17-7 17-16v-118c0-41-14-105-31-143l-115-259c-5-12-5-23 0-30 4-8 14-12 28-12h218c9 0 16-7 16-16s-7-17-16-17z m116 578h-269c-10 0-17 8-17 17s7 16 17 16h269c9 0 17-7 17-16s-8-17-17-17z m-181 82c-36 0-65 29-65 65s29 65 65 65c36 0 65-29 65-65s-29-65-65-65z m0 97c-18 0-32-14-32-32s14-32 32-32c18 0 32 15 32 32s-14 32-32 32z m151 5c-47 0-85 37-85 84s38 84 85 84c46 0 84-38 84-84 0-47-38-84-84-84z m0 135c-28 0-51-23-51-51 0-28 23-51 51-51 28 0 51 23 51 51 0 28-23 51-51 51z m-200-5c-30 0-54 24-54 54s24 54 54 54c30 0 55-24 55-54s-25-54-55-54z m0 75c-11 0-21-10-21-21s10-21 21-21 21 9 21 21c0 11-9 21-21 21z m168-792c-29 0-60 7-90 25-65 39-133 11-155-9-7-6-18-5-24 1-6 7-5 18 2 24 36 32 121 57 194 13 60-37 126-21 165 12 7 5 18 5 23-2 6-7 5-18-2-24-28-24-69-40-113-40z" horiz-adv-x="529.3" />

<glyph glyph-name="uniE616" unicode="&#xe815;" d="M500-150c-276 0-500 224-500 500 0 276 224 500 500 500 133 0 259-52 353-146 95-95 147-220 147-354 0-276-224-500-500-500z m0 975c-262 0-475-213-475-475 0-262 213-475 475-475 262 0 475 213 475 475 0 127-50 246-139 336-90 89-209 139-336 139z m146-748c-2 0-4 0-6 1l-190 105c-6 3-8 11-5 17 3 6 11 8 17 5l175-97 71 512-490-290 141-74c6-3 8-11 5-17s-11-8-17-5l-160 84c-4 2-7 6-7 10 0 5 3 9 6 11l531 316c4 2 9 2 13-1s6-7 6-12l-77-555c-1-4-4-7-7-9-2-1-4-1-6-1z m-261-33c-1 0-2 0-2 0-5 1-10 5-11 10l-31 189c-1 4 0 8 3 11l370 398c5 5 12 6 17 2 5-4 6-11 3-16l-272-444-66-143c-2-5-7-7-11-7z m-19 197l24-144 50 108c0 1 1 1 1 2l207 338-282-304z" horiz-adv-x="1000" />

<glyph glyph-name="uniE617" unicode="&#xe816;" d="M761-96c-4 0-7 1-10 2l-311 172c-10 5-14 17-8 27 5 10 17 13 27 8l286-157 115 835-798-474 229-120c10-5 14-18 9-27s-18-14-27-9l-262 137c-7 3-11 10-11 17 0 7 4 14 10 18l866 514c7 4 15 4 21 0 7-5 10-12 9-20l-125-906c-1-6-6-12-11-15-3-2-6-2-9-2z m-428-54c-1 0-1 0-2 0-9 1-16 8-18 17l-51 309c-1 6 1 12 5 17l604 651c7 7 19 8 27 2 9-6 11-18 5-27l-443-723-108-234c-4-8-11-12-19-12z m-30 322l39-234 82 176c0 0 1 1 1 2l338 552-460-496z" horiz-adv-x="906.3" />

<glyph glyph-name="uniE618" unicode="&#xe817;" d="M500-150c-276 0-500 224-500 500 0 276 224 500 500 500 133 0 259-52 353-146 95-95 147-220 147-354 0-276-224-500-500-500z m0 975c-262 0-475-213-475-475 0-262 213-475 475-475 262 0 475 213 475 475 0 127-50 246-139 336-90 89-209 139-336 139z m0-188c-30 0-54 24-54 53s24 54 54 54 54-24 54-54-24-53-54-53z m0 80c-15 0-26-12-26-27s11-26 26-26 27 12 27 26-12 27-27 27z m0-182c-8 0-14 6-14 13v102c0 8 6 14 14 14s14-6 14-14v-102c0-7-6-13-14-13z m0-216c-8 0-14 7-14 14v98c0 7 6 13 14 13s14-6 14-13v-98c0-7-6-14-14-14z m0-363c-8 0-14 6-14 13v246c0 8 6 14 14 14s14-6 14-14v-246c0-7-6-13-14-13z m185 461h-405c-5 0-10 3-12 8-2 4-2 10 1 14l39 51-39 50c-3 4-3 10-1 15s7 7 12 7h405c3 0 6-1 9-3l74-56c3-3 5-7 5-11 0-4-1-8-5-11l-74-61c-2-2-5-3-9-3z m-377 27h373l57 47-57 44h-373l28-37c4-5 4-12 0-17l-28-37z m412-242c0 0 0 0 0 0h-405c-3 0-6 1-9 3l-74 56c-3 3-5 7-5 11 0 4 2 8 5 11l74 61c2 2 5 3 9 3h405c5 0 10-3 12-8 3-4 2-10-1-14l-39-51 38-49c2-2 4-6 4-10 0-7-6-13-14-13z m-401 27h373l-28 37c-4 5-4 12 0 17l28 36h-372l-58-46 57-44z" horiz-adv-x="1000" />

<glyph glyph-name="uniE619" unicode="&#xe818;" d="M328 725c-34 0-62 28-62 63s28 62 62 62c34 0 62-28 62-62s-28-63-62-63z m0 98c-19 0-35-16-35-35s16-35 35-35 35 15 35 35c0 19-16 35-35 35z m0-221c-7 0-14 6-14 14v123c0 8 7 14 14 14 8 0 14-6 14-14v-123c0-8-6-14-14-14z m0-261c-7 0-14 7-14 14v118c0 8 7 14 14 14 8 0 14-6 14-14v-118c0-7-6-14-14-14z m0-491c-7 0-14 6-14 14v348c0 8 7 14 14 14 8 0 14-6 14-14v-348c0-8-6-14-14-14z m225 610h-491c-5 0-10 2-12 7-3 5-2 10 1 14l48 63-48 64c-3 4-4 9-1 14 2 4 7 7 12 7h491c3 0 5-1 8-2l90-69c3-3 5-7 5-11 0-4-2-8-5-10l-90-74c-2-2-5-3-8-3z m-464 27h459l73 60-73 55h-459l38-49c4-5 4-12 0-17l-38-49z m506-288c0 0-1 0-1 0h-490c-3 0-6 1-9 3l-90 68c-3 3-5 7-5 11 0 4 2 8 5 11l90 74c2 2 5 3 9 3h490c5 0 10-3 12-8 3-5 2-10-1-14l-48-63 47-62c2-2 4-6 4-10 0-7-6-13-13-13z m-487 27h459l-38 50c-3 4-3 11 0 16l38 49h-459l-73-59 73-56z" horiz-adv-x="656.3" />

<glyph glyph-name="uniE61A" unicode="&#xe819;" d="M0 663l313 125v-750l-313-126z m688 0v-751l-313 105v750z m312 125v-750l-250-101v751z" horiz-adv-x="1000" />

<glyph glyph-name="uniE61B" unicode="&#xe81a;" d="M535 739l3 1 1 2 1 1 2 2 2 2 1 1v3l-2 2-1 2 0 1v2l0 3 1 2 1 1 1 2 2 2 2 1 2 1 2 2h3l2 1 1 0 1 1 1 1 2 1h5l1 0 1-1 1-1 1 0 2-1 2 0 1-1 2-1 1-1v-1l1-2v-1l1 0 2 0h2l1 0 2-1 1-1 2 0 3 0 2 0h2l2 0 3 0 1-1 1-1v-1l2 0 1 0v1l1 1 1 1c0 0 1 0 1 0s2 0 2 0 1-1 1-1l4 0 1-1 2 0 1 0h2c0 0 3 0 3 0s1-1 1-1l2 0 1-1c0 0 0-1 1-1s1 0 1 0h2l1 0c0 0 1-1 1-1s1-1 1-1l1 0 1 0 1 0v1l0 1v0l2 1 1 0v-2l1-1h2l1-1c0 0 0 0 1-1s1-1 1-1l1 0 1 1v0l1 1 1 1 0 0 2 2 1 1 1 1 1 1 1 1 1 1 1 1 1 0h1l1 0 1 0 2 0 1 1 2 1 0 1 1 1 1 0 1 1 1-1v-1l2-2 0 0 1 0 1 1 1 1 2 1 1 0 1-1 0-1v-1l-1-1h-1l1-1 1 0 1-1v-1l1 1v1l3 1c0 0 1-1 1-1s1-1 1-1l1-1h3l2 1 1 1 2 0 1 0 2 0 1 1 1 1 1 1 1 1 2 1 1 0 1-2 1-2 0-1 1-1 2-2 0-2 1-2 1-1 0-2 1-1 1-2 2-1 0-2c0 0 0-1 0-1s0-3 0-3l1-2v-2l-1 0-1-1 0 0 0-2 0-2 0-2 0-1 0-1 0-1-1-1-1 0 0-2 0-1 0-3 2-1 0-1-1-1 0 0-3-2 0-1-1 0h0l-2 0c0 0-1 1-1 1s-2 1-2 1l-1 1-1 1 0 1-2 2-1 1 0 1-1 1-1 1-1 0-1 2-1 1 0 2-1 1-1 2 0 1-1 1 0 0-2 1 0 1-1 2-1 1-1 1 0 1-1-1 1-1 0-1 1-1 1-1 1-1 0-2 0-1 0-1v-1l0-1c0 0 1-2 1-2s2-1 2-1l1 0 1-1 1-1 1-1 0-1 1-1 1-1 0 0 1-1 0-1 1 0 1 0 0-1 1-1 0 0c0 0 0-1 0-1s1-1 1-1l1-1 1 0 1 0 1 0 1-1 1-1 0 0-1-1c0 0 0-1 0-1s-1 0-1 0-1 0-1 0 0 0 0 0-1 0-1 0l0-1c0 0 0 0 0 0s1 0 1 0l1-1 0 0 1-2 0 0 1-1c0 0 0 0 0 0s1-1 1-1 0 0 0 0 0-1 0-1 0-1 0-1 0 0 0 0-1 0-1 0 0 0 0-1 0 0 0 0 0-1 0-1 0 0 1 0 0 0 0-1 0 0 1-1 0-1 0-1l2 0v-1c0 0 0 0 0 0s0-1 0-1 1-1 1-1 0-1 0-1l1 0 0-1 0 0c0 0 1-1 1-1s0-1 0-1 0 0 1-1 0 0 0 0-1 0 0-1 2-1 2-1l1-1v-1l1-1v0l0-1 0 0 1-1 0-1 1 0 0-1 1-1 1-1 0 0 1-1c0 0 0-1 0-1s1-1 1-1 1-1 1-1 1-1 2-1 0-1 0-1 1 0 1 0 1-1 1-1 1-1 1-1l1-1 1 0 1-1 0-1 1 0v-1c0 0-1 0 0 0s0-1 0-1-1 0-1 0-1 0-1-1 0 0 0 0l-1 0c0 0-1-2-1-2s0-1 0-1 0 0 0 0 1-1 1-1h0c0 0 2-1 2-1s0 0 1 0 1-1 1-1l0-1 2-1c0 0 0 0 0 0s1 0 1 0l1-1 2-1 1-1c1 0 2-1 2-1l1-1 1-2 1-1c0 0 1 1 1 0s2-1 2-1-1 0 0 0 1-1 1-1v-1c0 0 0-1 0-1s0-1 0-1l0-1v-3h1v-1c0 0 0 0 1 0s0-1 0-1 1 0 1 0 1-1 1-1 1-1 1-1l1-1c0 0 0 0 0-1s1-1 1-1v0l-1-1c-1 0 0 0-1 0s0 0-1 0 0 0 0 0 0-1 0-1l0-1 0-2 1-1 0-1v-1l0-1-1-1 0-1v-1c0 0 0 0 0-1s0 0 0 0 1-1 1-1 0-1 0-1l0-2 0-1 0-2 0-1c0 0 1 0 1 0s1-3 1-3v-1c0 0 0 0 0 0s1-1 1-1 0-1 1-1 0-2 0-2 1 0 1 0 0-1 1-1 1-1 1-1 0 0 1 0 3-2 3-2 1 0 1 0 0-1 1-1 1-1 1-1 1 0 1-1 1-1 1-1l2 0 3-2v-1l1-1v-1c0 0 1-2 1-2s0 0 0 0 1-1 1-1 0-1 0-1v0l1-2 1-1 1-1v-1l0 0v-2l1-1 1-1 0-1c0 0 0 0 0 0s0 0 0 0 0-1 0-1 0 0 0 0 0-1 0-1 0 0 0-1 0 0 0 0 0-1 1-2 0-1 1-1 0-1 0-1 0 0 1 0 2 0 2 0l1 0 0 0 1 1 2 1c0 0 0 0 0 0s1 1 1 1l2 1c0 0 0 0 0 0s1 0 1 0l1-1v-3l0-1 1-1c0 0-1 0 0-1s3-1 3-1h1l1 0 1-1 1-1c0 0 0 0 0 0s1-1 1-1 0-1 0-1l1-1c0 0 0 0 0 0s0-1 0-1-1 0-1 0 0-1 0-1-1 0-1 0-2-1-2-2-1 0-1 0l-1-1v0l0-1 1-1h1l1 0c0 0 0 0 0 0s1-1 1-1l1-1c0 0 1 0 1-1s1 0 1 0 1 0 1 0 2 0 2 0l0-1 1-1 1-1h0l1-1v0c0 0 0-1 1-1s1-1 1-1 1-1 1-1 0 0 1-1 0-1 0-1 0 0 0 0 1-1 1-1h1c0 0 1 0 1 0s1 0 1-1 2 0 2 0v-1c0 0 0 0 0-1s2-1 2-1l0-1c0 0 1 0 1 0s1-1 1-1v-1l1-1v-1l2 0 3-2c0 0 0 1 1 0s2-1 2-1 1 0 1-1 1-1 1-1h1c0 0 0-1 0-2s0 0 0 0-1 0-1 0 0-1 0-2 1 0 1 0 1-1 1-1 1-1 1-1 1-2 1-2l1 0v-2c0 0 0 0 0 0s0-2 0-2l0-1-1 0 0-1-1 0c0 0 0 0 0 0s-2-1-2-1l0-1c0 0 0 0-1 0s0-1 1-1 1-2 1-2 2-1 2-1 1 0 2-1 0 0 0-1 1-1 1-1v-1l1-1h0c0 0 0 0 0 0s2-1 2-1l0-1 1-1c0 0 0 0 0-1s1 0 1 0 1-1 1-1 1-1 1-1 0 0 0-1 1 0 2 0 0-1 1-1 0-1 0-1 3 0 3 0l2 0 1-1c0 0 2 0 2 0s1 1 1 1 1 1 1 1 1 0 1 0 1 1 2 1 1 0 1 0 1 1 1 1l1 1c0 0 0 0 1 0s1 1 1 1 1 1 1 1 0 0 1 0 0 1 1 1 1 1 1 0 0 0 0 0l2-1c0 0 0 0 0 0s1-1 1-1 0 0 1 0 1 0 1 0 2-1 2-1l0 0c1 0 3 1 3 1l0 0 1 1 1 0 2 2 1 0c0 0 0 0 1 1s0 1 1 1 2 1 2 1 1 0 1 0l4 0 6 2 1 1 1-1h3c0 0 1 0 1 0s3 1 4 1 1 0 2 0 0 0 1 0 1 0 1 0l1 0h1l1 1 1 0 1 0 2 0 1 1h4l1 1c0 0 1 1 1 1s2 1 2 1 1 1 1 1 3 2 3 2l1 2c0 0 1 0 1 0s1 0 1 0l1 0 2-1 2 0 1-1 0-1v-2l0-1-1 0 0-1-1-1 0-1v-1l1-1 0-1 1 0 0-2c0 0 0 0 0 0s-2-1-2-1l0-2 1 0c0 0 1-1 1-1l0-2v0l0-1c0 0 0 0 0 0s-2 0-2-1 0 0 0 0-1-1-1-1-1 0-1-1 0 0 0 0l0-4c0 0-1-1-1-2s0-2 1-2 0-2 0-2 0 0 0-1 0-2 0-2v0c0 0-1-1-1-1s-1-1-1-1-1 0-1-1 0 0 0-1-1-1-1-1 1 0 0-1-1 0-1-1 0-1 0-1l-1-2 0-1 0-1c0 0-1-1-1-1s1 0 0-1 0 0 0 0-1-1-1-1-1 0-1 0-1-1-1-1l-1-1 0-1c0 0-1 0-1 0s0-1 0-1l-2-1c0 0 0-1 0-1s-1 0-1-1 0-1 0-1v-1c0 0 0-1 0-1s0-1 0-1 0-1 0-1l0-1c0 0-1-1-2-1s0 0 0-1 0-1-1-1 0-1 0-1-1 0-1-1-1-1-1-2-1-1-1-2 0 0 0 0 0 0-1-2-1-1-1-1 0-2 0-2 0-1 0-2 0-1 0-1l0-1-1-1c0 0 0-1 0-1s-1 0-1-1 0-1-1-1 0-1 0-2 0 0 0 0-1-1-1-1-1-1-1-2 0 0-1-1-2-2-2-2 0-1 0-1-1-1-1-1 0-1-1-1 0-1 0-2-1-1-1-1-1-1-1-1 0-1 0-2-2-2-2-2-1-1-1-1-1-1-2-1-1-1-1-1-1-2-1-2-1 0-1 0 0-2 0-2l-1 0 0-2c0 0-1 0-1-1s-2-1-2-1l0-1-1-1-1-1c0 0 0-1 0-1s-1-1-1-1 0 0-1 0 0-1-1-1 0-1-1-1 0-1 0-1-1-1-1-2-1 0-1-1-2-1-2-1 0 0 0 0-2-1-2-1l0-1-1 0-1-1c0 0 0 0 0 0s-2-2-2-2l0-1-3-1c0 0-2-2-3-2s-1-2-1-2-3-1-4-2-2-1-2-1l-2-1c0 0-1-2-2-3s-3-2-3-2l-1-1h-2c0 0-3-2-3-3s-2-2-2-2 0-1-1-1-2-1-3-3-2-3-2-3l-1-1c0 0-1-1-2-2s-3-3-3-3c-1-1-2-2-2-2-2-1 0 0-2-1s0 0-1-1 0 1-2-1-1-3-2-3-1-3-1-3c-1 0-1 0-2-1s2 3 0-1-3-4-3-4l0-2c0 0-1 0-1-1s-1-3-1-4 1 1 0 0 0 0-1-2-2-2-2-2l-1-1 0-1 0 0c0 0-2-1-2-1s0 0 0 0l-1 0-1 1c0 0 0 0 0 0s-1 1-1 1 0 0 0 0-1 1-1 1-1-1-1-1-1 0-1 0 1-1 1-1 0 0 0 0 1-1 1-1 0 0 0 0 1-1 1-1l0-1 0-1 0-1c0 0-1 0-1-1s-1 0-1 0l-1 0c0 0 0 0 0-1s0 0 0 0-1 0-1-1-1 0-2 0-1 0-1 0 0 0-1 0-1-1-1-1-1-1-1-1 0-1 0-1-1 1-1 0-1 0-1 0 0-1 0-1 1 0 1 0 1-1 1-1 0-1 0-1-1 0-1-1-1 0-1 0 0-1 0-1 1-2 1-2-1-1-1-2-2 0-2 0 0 0-1 0 0 0 0 0 0-2 0-2l0-1 0-1 0-1 0-1c0 0 1 0-1-1s-1 1-1 0-1-1-1-2 0 0 1-1 0 0 0-1 0-1-1-1-1-1-1-1 0 0 0-1-1-1-1-1-1-1-1-1l-1-1-1-1c0 0 0-1 0-1s-1-1-1-1 0-2 0-2-1-2-1-2 0 0 0-1 1-1 1-1 0-1 0-1 0-1-1-1-1-2-1-2 0 1 0 0 0 0-1 0-1-2-1-2 0-3 0-3l0-1c0 0 0-1 0-2s1-1 1-1 2-2 2-2 1 0 1-1 2-2 2-2 1-1 1-1 1 0 1 0 1-2 2-2 2-1 2-1 0-1-1-1 0-1 0-1l-1-1-2-3c0 0 0 1 0-1s0-1 0-1 1-1 1-2-1-1-1-1 0 0 0-1 4 0 4 0 0-1 0 0 1 3 1 3l1 1c0 0 0 1 1 1s1 0 1-1-1-1-1-1 1-2 1-2 1 0 1 0 0-2 0-2h-1c0 0-1-1-1-1s-1-1-1-1-1 0-2-1-1 0-1 0l-2-1 0-1v-2c0 0 0 0 0 0s1-2 1-2l0-2 1-2 1-2c0 0 0-1 0-1s0-2 0-2 3-3 3-3 0-1 0-1 1 0 0 0 0-2 0-2 0 0 0-1 1-2 1-3 2-1 2-1 1 0 1 0 2-2 2-2 2 0 2 0 0-1 1-1 0-1 0-1 1-2 1-2 0-1 0-2 1-1 2-2 1-2 1-2-1-1-1-2 0-1 0-1-1 1-1 0-1-1-1-1 0-1 0-1 0-1 0-1-1 0-2 0-1 0-1-2 1-1 1-1 1 0 1 0 2 1 2 0 0-2 0-2 0 0 0-1 0-1 0-1 1 0 0-1-1-3-1-3 1-1 1-2 0-4 0-4l2-1c0 0 1-2 1-2s-1-1-1-2 0-2 0-2 0-1 0-1 0-2 0-2-1-1-1-2 0-1 0-1l1-2c0 0 1 0 1-1s2-1 2-2 0-3 0-3l1-2 0-1v-1l0-2v-1l-1-1 0-2c0 0 0-1 0-2s0-2 0-2l-1-1c0 0 0-1 0-1s-1-1-1-1-1-1-1-1l-2-3 0-1c0 0-3-3-3-3s0-2 0-2 1 1-1 0-4-4-4-4-1-2-1-2-3-3-3-3l-1-1c0 0-1 1-2 0s-1-1-2-1 0 0-1 0-5-2-5-2-1 1-1 0-2 0-2-1-1-1-1-1-2-1-2-1-2-1-3-1-2-2-2-2-3-1-4-2-1-1-1-1 0-1-1-2-2-2-2-2l0-1c0 0 0-2-1-3s-2-3-2-3-1-1-2-2-2-1-2-1 0 0-1 0-1-1-1-2-2-1-2-1l-3-2-1-3-1-1-2-1-3-3-1-1c0 0-2 1-2-1s0 0 0-1-1-4-1-4-1-2 0-3 2 0 2 0l2-1c0 0 1 1 1 0s0-1 1-2 2-3 2-3l0-2-1-1c0 0 0 0 0-1s1-1 1-1 2-1 2-1l2 0 0-1 0-1v-1c0 0 0 1 0 0s0 1-1 0 0-2 0-2-1 0 0-1 0 0 1 0 2 0 2 0 0 0 0-1 0-1 0-1l0-1c0 0 0-1 0-2s0-1 0-2-1-1-1-1 0 0 0-1 0-2 0-2 3-1 3-1 0 0 0-1 0-1-1-1-1 0-1 0l0-1-1-2v0l0-2c0 0 0 0 0-1s1-2 1-2l2-2v-1c0 0 0 0-1 0s0-3 0-3 0 0 0 0 0-1-1-2 0-1 0-1l-1-1-1-1-1-1-1-1-1-1-1-1-2-2c0 0 0 0-1 0s-3-1-3-1 0 0-1 0-2-1-2-1-3-2-3-2-1 0-1 0-2-1-2-1-5-1-5-1l-1-1c0 0 0 0 0 0s-1-1-1-1-2-1-2-2-1 0-1-1-1-1-1-2-1-1-1-1 0-2 0-2 0-1 0-1-1 0-1-1 0-1 0-2 0 0 0 0l1 2c0 0 0 0 1 0s3 0 3 0l0 0c0 0 0-2 0-2s0 0 0-1 0 0 0-1-1-2 0-2 0-1 0-1 0-2 0-2-1-1-1-1l1-1-1-4-1-2-1-2c0 0-1 0-1-1s0-1 0-2 0-1 0-2 0-2 0-3 0-2 0-2l-1-2-1-2-2-1c0 0 0 0 0 0s-2-1-3-2-3-3-3-3-1 0-1-1-1 0-2-2-1-2-1-2l-2-2c0 0-1 0-1-1s-2-2-2-3 0-2 0-3 0-1 0-1 0-2-1-2 0-1-1-2 0-1-1-1 0-1 0-1l-1-1-1-4c0 0 0-1-1-1s-3-2-3-2l-1-2-2-3 0-1-1-1c-1-2-2-2-2-2l-1-1c0 0 0 0 0-1s-2-1-2-1l0-1c0 0 0-1-1-1s2 1 0-1-4-3-4-4-1-1-1-1-2-2-2-2l-2-1-2-2c-1-1-1-1-1-1s1-1 0-1-1-1-1-1-1 1-1 0 0 0-1-2 0 0-1-1-2-1-2-1h-2l-1-1c0 0 0-1-1-2s-2-1-3-1-1-2-1-2l-1 0 0-1c0 0 0 0-1 0s0 0-1 0-1 0-1 0h-1c0 0 0 0-1 0s0-1-1 0-1 0-1 0 0 1-1 0 0-1 0-1-1 0-1-1 1 0 0-1 0-1 0-1 0-1-2-1-1 0-1 0-1 0-2 1 0 0-1 1-1 0-1 0 0 0-1 0 0-1 0-2 0 0-1-1 0 0-1-1-1 1-2 0-1 0-1 0-1 0-3 1-2 1-2 1-1 0-1 0-2-1-2-1-2 1-2 1c-2-1-2-1-2-1l0-1c0 0 0 0-1-1s-1 0-1 0 0 0-1 0 0-1 0-1-1-1-1 0 0 1 0 1-1 1-1 1-1 0-1 0h-1c0 0 0 0-1 0s0 1 0 0-1 1-1 0 0-1-1-1 0 0-1 0 0 0-1-1-1 1-2 0 0 0 0 0l-1-1 0-1-1-2c0 0-1-1-1-1h-3c0 0 0 1-1 0s-1 1-1 0 0-1-1-1-1 0-1 0-1 1-1 1-1 0-1 0 0 0 0 0l-1 0-1 0-1-1c0 0 0 1 0 0s-1-2-2-2-1 0-1 0h0l-1-1h0l-1-2c0 0-1-1-1-1h-1c0 0-2 0-2 0s0 0-1 0-1-1-1 0-1 0-2 0 0 1 0 1-1 1-2 1 1 0 0 1 0 0-1 0-3 0-3 0l0 2c0 0 0 1 0 1s-2-1-2-1-1-1-1-1 0-1 0 0-1 1-1 1 0 2 0 2l-1 0 0-1-1-2 1 0c0 0-1-1-1-1s0 0 0 0-2 2-2 2l0 1-1 1 0 1v0l0 1 1 1 0 0c0 1 0 3 0 3l0 0-1 1 0 1-1 1-1 1-2 2 0 0-2 2 0 0-1 2 0 2-1 2c1 0 3 0 3 0l0-1c0 0 2-1 2-2s1 2 1 2v2c0 0 0 1 0 2s0 3 0 3l-2 3-1 2-1 1-1 1-1 1-3 2c0 0 0 0 0 0s-2 1-2 1l-1 1-1 1-1 2-1 1-1 2-1 1c0 0-1 1-1 1s0 1 0 1-1 2-1 2l0 1-2 2 0 2-1 1-1 2 0 1-1 2-1 1-2 1-1 2-1 1-1 2 0 0c0 0-2 2-2 2s-1 1-1 1-1 1-1 1-1 1-1 1l-1 1 0 1-2 1-1 1-2 2-1 1-1 1-1 2 0 1 0 2-1 2-1 2-1 1 0 1-1 1 0 2-1 1-1 1c0 0 0 0 0 0s-1 1-1 1l-1 1 0 1c0 0 0 1 0 1s0 1 0 1v2l-1 1c0 0 0 0 0 1s0 1 0 1l0 1-1 1v2l0 1c0 0 0 0 0 0s-1 1-1 1 0 0 0 0 0 1 0 1-1 1-1 1 0 0 0 0l0 1 0 1-1 0 0 1-1 0 0 1 0 0c0 0-1 1-1 1s0 1 0 1l0 0-1 1c0 0 0 0-1 0s0 1 0 1l0 1c0 0 0 1 0 1s0 1 0 1 0 0 0 0 0 1-1 1 0 1 0 1 0 1 0 1 0 0 0 1 0 1 0 1l0 0c0 0-1 1-1 1s0 1 0 1 0 1 0 1 0 0 0 1 0 1 0 1 1 0 1 0l0 1 0 0 2 0 0 0c0 0 1 0 1 1s0 0 0 1 0 1 0 1l0 0-1 1-1 0c0 0 0 0 0 0s-1 1-1 1l0 0 0 1c0 0-1 0-1 1s0 0 0 0v1l-1 1c0 0 0 0 0 1s-1 1-1 1l0 0-1 0-1 1 0 0-1 1v0l0 1c0 0-1 1-1 1s-1 0-1 0-1 1-1 1 0 1 0 1l-1 1 0 1-1 0-1 1c0 0 0 0 0 1s-1 1-1 1l0 0-1 1-1 0c0 0 1 0 0 0s-1 1-1 1l0 1-1 1v0l0 1 0 1v0l-1 0 0 1-1 1 0 1-1 1-1 1-1 2v0l-1 1-1 2-1 2v0c0 0-1 1-1 1s-1 2-1 2l-1 1c0 0-2 2-2 2s-1 2-1 2-1 1-1 1-1 2-1 2 0 1 0 1-2 1-2 1 0 0 0 0-3 1-3 1-2 1-2 1h0l-2 0c0 0 0-1-1-1s0 0-1 0-2 0-2 0v1l1 2v4l-1 1v5l-2 3v5l-1 1-1 2c0 0 0 0 0 1s0 1 0 1l1 2 2 2 0 2 0 2v3c0 0 0 2 0 3s0 3 0 3l1 2c0 0 1 0 1 1s-1 5-1 5 0 0 0 1 0 4 0 4v4l1 1 0 1-1 4-1 2 1 1v1l1 2 1 0 0 1c0 0 1 1 1 1s1 1 1 1l0 2c0 0 0 0 0 1s0 1 0 1 1 1 1 1 1 1 1 2 1 1 1 1 1 0 1 0 2 2 2 2l1 1 1 1 0 1 1 1 0 2v2l0 2 1 1v0c0 0-1 1-1 1s0 3 0 3l-1 2 0 6v1l0 1c0 0-1 1-1 1s0 1-1 2 0 0 0 1-1 1-1 2-1 2-2 3 0 0 0 0-1 1-1 1-1 1-1 1 0 1-1 1-1 1-1 1 0 0 0 1-2 2-2 2 0 1 0 1-1 1-1 2-1 1-1 1 0 1 0 1-1 1-1 1-1 2-2 2 0 1 0 1l-1 1-1 1v1c0 0 0 1 0 1s0 1 0 1l1 1c0 0 0 1 1 2s1 0 1 1 1 0 1 0c1 2 1 3 1 3v1c0 0 0 1 0 2s-1 1-1 1l-1 2c-1 0-2 1-2 1l0 1-1 1-1 1c0 0-1 1-1 2s-1 1-1 1l-1 1 0 1c0 0 0 0-1 1s0 0 0 0l-1 1v1l-1 1c0 0 0 1 0 1s-1 1-1 1l-1 1 0 1-2 1 0 1c0 0 0 1 0 1s-1 1-1 1l-1 1-1 0-2 1c0 0 1 0 0 1s-1 0-1 0l-1 0c0 0 0 0-1 0s-2 1-2 1-1 0-1 0 1 1 0 1-1 2-1 2 0 1 1 1 1 0 1 0l0 0 1 2c0 0 0 0 0 0s0 1 0 1-1 0-1 0-1 2-1 2l0 0-1 2 0 0-2 2c0 0 0 0-1 0s0 1-1 2 0 0 0 0l-1 1c0 0 0 1 0 1s-1 2-2 2 0 1 0 1l-1 0-1 2-1 1c0 0-1 1-1 1s-2 1-2 1 0 0-1 0-2 1-2 1l-1 1 0 1-2 3v0c0 0 0 2-1 2s-1 0-1 0l-1 1c0 0 0 0-1 0s-2 2-2 2l-1 1-1 0c0 0-1 1-1 1s-2 1-2 1l-1 1v1l-1 2-1 0v1c0 0 1 0 2 0s1 1 1 1 1 0 1 0-2 1-2 1l0-1c0 0 0 0-1 0s-1-1-1-1h-1c0 0 0 1 0 1s-1 0-1 0l-1 0-1 1-1 0c0 0 1 1 0 1s-1 2-1 2-1 0-1 0 0 0 0 0-1 1-1 1-1-1-2 1 0 3 0 3v2l-2 2 0 0-1 1-1 1-1 1c0 0-1 1-1 1s-2 3-2 3v0c0 0-2 3-2 4s-1 0 0 0 2 0 2 0 0 0 1 0 1-1 1-1 1-1 1-1 1 0 1 0 1 1 1 1 1 0 1 1 1 1 1 1l1 1c0 0 1 0 1 1s0 1 0 1 0 1-1 1 0 1 0 1 0 0 0 1-1 1-1 1l0 1c0 0 0 1 0 1s0 2 0 2v1c0 0 0 0 0 0s2-2 2-2 0 1 1 0 1-1 1-1 1-1 2-1 1 0 1 0 0 0 0 1-1 0-1 0-1 1-2 1 0 1 0 1l-1 1-1 1-1 2c0 0 1 1 1 1s1-1 1-1 2 0 2 0c-1 0-2 2-2 2v1l0 1 1 1-2 1c0 0 0 0 0 0s-1 0-1 0l-2 1 0 1c0 0 2 1 2 2s1 0 1 1 0 0 0 1 1 2 1 2 1 1 0 1 0 1 0 1 0 1-1 1-1-1-1-1-1 0-2 0-1 1-1 1l-1 1c0 0 0 1-1 1s0 1 0 1 1 1 1 2 2 1 2 1l1 1 0 1c0 0 1 1 1 1s2 0 3 0 0 0 0 0l1 1 0 1 0 2 0 2c0 0 0 1 0 1s1 1 1 1 1 0 1 0 1 1 0 1-1 2-1 2l0 0-1 1c0 0 0 0-1 1s0 0-1 0 0 2 0 2v1c0 0 0 1-1 1s-1 0-1 0 0 2 0 2 1 3 1 3 2 0 2 0 0 0 0 0 0 2-1 2-1 0-1 0l-1-1 0 0c0 0 0-1 0-1s-1-1-1-1l0 0-1-1c-1 0-3 1-3 1l-1 1c0 0-1 0-1 0s-2 1-2 1-1 0-1 1-1 0-1 0h-3c0 0 0 0-1 0s0 0-1 0-2 0-3 0 0 0 0 0-1 0-1 0 0-1 0-1v0l-1-1c0 0 1-1 0-1s-2 1-2 1 0 0 0 0-1 0-1 0c-1 1 0 2 0 2l0 1c0 0 0 1 0 1s0 0 0 0-1 1-1 2 0 1 0 1l0 1c0 0-2 0-2 0s0-1 0-1 1-1 1-1 0-1 0-1l0-1 0-1v0c0-1 0-1 0-1l0-1c0 0 0 0 0 0h-2l0 1c0 0 0 1 0 1s0 1 0 2-1 1-1 1l0 1v1c0 0 0-1 0-1s0-1-1-1 1-1 0-1 0-2 0-2l0-1c0 0 1 0 1 0s0-1 0-1 1 0 0 0-1-1-1-1l-1 0c0 0 0 0 0 0s-1 0-1 0 0 0-1 0-1 0-1 0-1 0-1 0 0 1 0 1l-2 0v-1c0 0 0 0-1 0s1 0 0 0-1 1-2 1-1 1-1 1 0 0 0 0-1 0-2 1 0 1 0 2-1 1-1 1l-1 1c0 0 0 1 0 2s-1 1-1 2 0 0 0 1-1 0-1 1 1 1 0 1 0 1 0 1 0 1 0 1v2c0 0 0 0 0 1s0 1 0 1l-1 0c0 0 1 0 1 1s1 0 1 0 2 1 2 1v1h-1c0 0 0 0 0 0s-2-1-2-1l-1 0c0 0 1 0 0-1s-1 0-1 0l0 1v2l-1 0 0 0c0 0 0 1 1 1s1 0 1 0 1 1 1 1l0 1h0l-1-1-1 0c0 0-1 0-1 0s-1 0-1 0 0 0 0 0 0 0-1 1 0 1 0 1l2 2 1 1-1-1c0 0-1 0-1 0s-1-1-1-1l-2 0 0 1-1 2v1c0 0-1 0-1 1s0 1 0 1l-2 1c0 0 0 0-1 1s-1 1-2 1-2 1-2 1l-1 1c0 0 0 0-1 0s-2 0-2 0h-1c0 0-2 0-2 1s-2 1-2 1v2c0 0 1 0 2 0s0 0 0 0 0 1 0 1-3 0-3 0 0 1-1 0 0-1 0-1l1-2c0 0 0-1 0-1s-1 1-2 1-2 0-2 0-2 0-2 0-3 0-3 0h-2v1h-2l-3-1c0 0-1 0-2 0s-1 1-2 1-2 0-2 0-2 0-2 0-1 0-2 0-1 0-1 0l-2 0v1l1 3v1l-1 1v0l-2 1-2 1c0 0 0 0-1 0s-3 0-3 0l-1-1-1-2c0 0 0-1-1-2s0 0 0 0h-3l-2 0c0 0-2-1-3 0s-1 1-1 1l-1 1c-1 0-3 0-3 0l-1-2-2 0-2-1h-1c0 0-1 1-2 0s-2 0-3-1-2-1-2-1c-1 0-1 0-3 0s0 0-1 0-3 1-3 0 0-1 0-1c-1-1 0-1-1-1s-3 1-4 1-2 0-2 0v-1l-1-1-2-1c0 0 3 0 0 0s-3 0-3 0-1 1-1 2 0 1-2 1-1 0-1 0-1 1-1 1-2 1-2 1 1 0 0 0-1 0-1 0l-1 2c0 0 0 0 0 0s1 1 0 1-2-1-2-1v0l-2 1c0 0 0 0-2 1s-1 0-1 0 0 0 1 1 2 2 2 2 1 2-1 1-3-2-3-2l-2-1h-1c0 0 1 0 0 1s-1 1-1 1 0 1-1 1-3 0-3 0v-1l-2 0-2 0-2 1c-2 0-3 1-3 1h-1l-1-1c-1 0-3 2-3 2s-1 0-2-1-3-1-4 0-2 0-2 0 0 0-1 0-3 0-4 0-1 0-2 0-1-1-1-1c-2 0-3 0-3 0l-3 0c0 0 0-1-1-1s-5 0-7 0-1 0-1 0v-1c0 0-1-1-2-1s-1-1-2-1-2 0-2 0v1c0 0-1 1-2 1s-2 1-3 2 1-1 0 0-2 2-3 2 1-1 0 0-3 2-3 3-1 0-2 0-1 1-1 2-2 2-2 2-1 1-2 1 1 0 0 1-4 2-4 2 1 0 0 1-1 0-1 1-2 2-2 3-1 3-1 3l-2 2-2 3-1 1c0 0-3 1-3 2s-2 2-2 2v2c0 0 2 0 0 1s-4 2-4 2l-1 2c0 0 0 0 0 1s-1 0-1 1-1 2-1 2l-2 1-2 0c0 0-1 1-1 1s-2 1-2 1 0 0-1 1-2 2-2 2l-1 1-2 2-3 1c0 0 0 1-1 1s-2 3-3 4 2 1 2 1c1 0 1 1 1 2s1 0 1 0 0 2-1 2-1 0-1 0l-2 0v5l2 1c0 0 0 0 1 0s1-1 2 0 1 0 1 0 2 1 1 1-1 0-1 0h-2c-1 1-1 2-1 2l0 3-1 2-1 4c0 0 0-1-1 1s-1 0-1 1 0 2 0 2 0 1 0 1-2 1-2 1-1 2-1 2-1 1-2 1-2 2-3 3 0 1-1 1-1 2-1 2 0 0 0 1 0 1 0 2 0 0 1 0 1 0 2 0-1 2-1 2c-1 0-1 0-1 0s-1 0-1 0-1 0-1 0 0 0 0 0 0 2 0 2l-1 1c0 0 1 0 0 0s-1 0-1 0 0 0 0 0-1-1-1-1-1 1-1 1v0l-1 1-1 1v1l-1 1-1 1v0l-1 0-1 0-1-1v-1l-1 0c0 0 0-1-1 0s-1 2-1 2 0 0 0 0-1 0-1 0 0 0-1 0-2 0-2 0l0 0-1 1v2l-1 1c0 0-1 0-1 0s-1 1-1 1v1l1 2 1 1 1 2 1 0c0 0 3 0 3 0s0-1 1-1 1-1 2-1 0 1 0 1-1 1-1 2-2 2-3 2 0 0 0 0l-1 0-1 1 0 2c0 0-1 1-1 1s-1 0-1 0-1 0-1 1 0 2-1 2 0 1 0 1l1 2 0 2 1 1c0 0 0 2 1 2s0 0 1 2 1 2 1 2l2 1c1-1 4-2 4-2h2l1 0c0 0 4 0 5 0s1 0 1 0 2-1 2 0 2 1 2 1h4l1-3c0 0 0 0 1-1s2-1 2-1 1-1 2-1 3-1 3-1 1 0 2 0-1 0 0 0 2 0 2 0l-1 1c0 0-3 0-5 1s-2 1-2 1 0 1-1 2-1 1-1 1l-2 2-1 0-1 0c0 0 0 0-1 0s-1 0-2 0-1 0-2 0-2 0-2 0-2-1-2-1h-2l-1 1c0 0-1 0-2 0s0 0 0 0l-2 1c0 0-1 1-1 1s-2 0-2 0l-1 0 1 3-1 1c0 0 0 1 0 2s0 2 0 2 2-2 0 1-2 3-2 3l-2 3-1 1-1 1-2 1c0 0 0 0 0 1s0 3 1 3 2-1 3-1 3-1 3-1l2 0 0 3 2 2 3 2 1 1 1 2 2 3c0 0-1-1 0 1s1 2 1 3 1 1 1 1l3 2c0 0 1 3 2 4s2 3 2 3 1 1 1 1 3 3 3 3l0 4 1 2 0 1v5c0 0 1 1 1 2s0 2 0 3-1 2-1 2l-2 2-2 1v1l2 2 1 1-1 2 1 2c0 0 1-1 2-1s1-2 2 0 1 2 1 2l0 2-2 3c0 0 0 0 0 1s-1 2-1 2l-2 1-1 3c0 0 0 1 0 2s-4 3-4 3l2 2 1 1 2 3 1 1c0 0 1 1 1 1s2 1 2 1 1 1 1 1 4 1 4 1l0 1 0 2c0 0 2 4 2 4s1 2 1 2 1 2 1 2l0 2c0 0-1 1 0 1s2 3 2 3l1 0 2 1c0 0 1 0 2 1s2 0 2 0l2 2 4 2 0 1v3l0 3c0 0 0 2 0 2s2 3 2 3-1 1 0 1 1 1 1 1l2 2 1 2c0 0 0 1 0 2s2 3 3 3 1 0 2 0 1-1 1-1 1 0 2 0-1-1 0 0 3 2 3 2l3 1c0 0-1 0 0 2s1 3 1 3l1 1 1 2 2 2 2 3c0 0 1 1 2 2s1 0 1 0 1 1 2 1 3-1 3-1-1 0 2 0 4 0 4 0h4c0 0 2 0 2 0s2 1 2 1l2 0c0 0 1 1 1 2s3 2 3 2 2 3 2 3 2 0 2 0 3 0 3 0 1 0 1 1 2 2 2 3 3 2 3 2l2 1c0 0 1 0 1 1s1 0 2 1 1 1 1 1 1 2 2 3 2 1 2 2 1 2-1 2-2 1-2 1l-1 1 0 0v3l1 1c0 0 1 0 1 2s0 5 0 5-1 0 0 1 3 2 3 2l4 3c0 0-1 1 0 2s2 3 2 3l1 4c0 0 1 1 1 1s2 0 2 0 0-2 2 0 2 3 2 3 3 0 4 1 2 2 2 2h6l2 1c0 0 0-1 1 0s8 3 8 3l0 1 2 2 1 0c0 0 0-1 0 0s2 4 2 4 0 1 1 2 2 3 2 3 1 1 1 2 2 1 2 1-1 0 0 1 2 3 2 3l5 5c0 0-1 0 0 1s3 1 4 1 1 0 2 0 2 0 2-1 0-3 0-3-1-1-1-1 0-1 0-1 1-2 1-2l1-1 1-1 2-2 1-1c0 0 0 0 1 0s1 0 1 0l7-1c2-2 2-2 2-2l4 0 2 1v1l0 1c1 1 2 0 2 0v-1c0 0 0-1 0-1s2 0 2-1 3-2 3-2 1 0 2 0 1 0 1 0 2 0 2 0h2l1 2c0 0 1 3 2 3s2 1 2 1l2 1 1 0 1-2c0 0 0 0 0-1s-1 0 1-1 3-1 3 0 0 3 0 3l1 0c0 0 3 1 3 1s0 0 0-1-2-2 0-1 3 0 3 1 1 3 1 3l3 1c0 0 0 0 1 0s4 2 4 2 0 0 1 1 4 1 4 1 2 0 2 0 0-1 2-1 3 0 4 0 1 0 2 0 3-1 3-1l3-1 3 2 1 1 3-1c1 1 3 3 3 3s3 0 5 0 5-1 5-1 0 1 1 0 2-2 2-2l3-2c1-1 3-1 3 0s0 1 1 1 2 0 2 0c2 0 2 0 3 0s3 3 3 3 0 1 1 1 2 0 2-1 1-2 1-2l1-1 2 1 2 2 2-1 1-1c0 0 0-1 1-1s0-1 0-1 3-1 4-1 1 0 1 0c2 1 3 2 3 2l2 0c0 0 1 1 2 1s3 2 3 2l1 0c0 0 1 0 2 0s2 0 2 0 1 0 1 0 2-1 2-1 0 0 1-1 1-1 1-1 1 0 1-1-1 0-1-1-3-2-1-3 2 0 2 0 1 0 1 0 1 1 1 1l1 1c0 0 1 1 1 1s0 2 1 2 2 0 2 0 0-2 1-2 1-1 1-2 0-1 0-1-3-2-3-2-1-1-2-2-2-1-2-1 0 0 0-1 0 1-1 0 0 0 0-1 0-1 0-1l1-1c0 0 1-1 2-2s0 0 0 0 1-1 2-2 0-1 0-2 1-2 1-2 0-1 0-2 0-1 0-1-1-3-1-3l-1-1c0 0-2-1-2-1s-1-1-2-2-1-1-1-1 0-2-1-3-2-3-2-3l-1-2c0 0-1 0-1-1s0 1 1 0 5-4 5-4c1 1 1 1 1 2s2 3 2 4 0 0 1 0 2-1 2-1l0-2-1-1c0 0-1 0-1-1s-1 1 0 0 3-2 3-2c0-1 2-2 3-2s2-1 2-1l2 1 2-1c0 0 0-1 1-1s1-1 1-1 2-2 3-2-1-1 1-1 4 1 4 1 3 0 3 0l1 3c0 0 1 0 1 0s2-2 2-2l1 0 4-1 2-1 4-1c0 0 2 0 2-1s-2 1 0 0 0-2 1-2 2 0 3 0 1-1 1-1 0 1 1 0 0 0 1-1 3-2 3-3-1-3-1-3v-1c0 0 0 0 1-1s1-3 1-3l2-1c0 0-1 0 1-1s3-2 3-2 1 0 2 0-2 0 1 0 5 0 5 0 2 1 3 0 2-1 3-1-1 0 0-1 2-1 3-1 1 0 1 0-2 0 2-1 3-1 3-1 0-1 1-2 2-1 2-1l3-2c0 0 1 0 2-1s3-2 3-2l2 1z m374-568v3h-2l-2-2v-1c0 0-1 0-2 0s0 2-1 0-1-2-1-2 0-1 0-2 0-2 0-2h1c0 0 0-1 0-2s0-2 0-2l-1-1-1-2v-1c0 0-1 0-2 0s-1-1-1-1 1-2 0-3 1 1 0-1 0-2-1-1-1 3-1 3l-1 1-2 0v-2c0 0 0-2 0-2s0-1 0-1 1-2 1-3 3 0 0 0-4 0-4 0 0-1 0-2 0-3 0-3-1 0 0-1 2-2 1-2-1-1-1-1l-3 2v1l-1 0c0 0-2 0-2-1s0-2 0-2v-2c0 0 0 0 0-1s1-1 1-1-1-2-1-2-1 0-1 0v3c0 0-1-1-1 0-1 0-1 0-1 0 0 0 0 0 0 0s-4-3-4-3-1 0-1 0l-1-1v-1c0 0 1 1 1 0s1-2 1-2 2-2 0-2-4 0-4 0v3l-2 1c-2-1-3-2-3-2v0l-1-1-1-1c0 0 1 1 0 1s-2 0-2 0l-2-1c0 0 0 0-1-1s-2-1-2-1h-1c0 0-1 0-1 0s-3 0-3 0l-1-1c0 0 0 0 0-2s0-1 0-2 0-2 0-2v-2l0 0v-1l-1 0-1-1c0 0 0-1-1-1s0-1 0-1l0-1v0l0-1c0 0-1 1-1 0s-1-1-1-1v-3c0 0 1-1 1-1s0 0 0 0l0-1v-1l0-2 0 0c0 0 0-1 1-1s0-1 0-1 1 0 1 0 0-1 0-1v-1l0-1c0 0 0-1 0-1s1 0 1 0l0-1 1-1c0 0 0 0 0 0s0-1 0-1 0-1 0-1 0-2 0-2 1 0 1 0 0-1 0-1 1-1 1-1l1-1 1 0 0-1c0 0-1 0-1 0s0 0 0 0-1 0-1 0 0-1 0-1 0-1 0-1 0-1 0-1 0 0 0 0 1-1 1-1 1 1 1 0 1-1 1-1-1 0-1 0-1 0-1 0h-1c0 0 0-1 0 0s0 0 0 0l0-1c0 0-1 1-1 0s0-1 0-1 0 0 0-1 0 0-1-1 0-1 0-1l0-1c0 0-1 0-1-1s0-1 0-1c-1 0-2 0-2 0l0-1 0-1-1-2c0 0 0-1 0-1s1 0 0 0-1 0-1 0l-1-1-1 0c0 0 1 0 0-1s0 0 0 0-1-1-1-1 0-1 0-2 0-1 0-1 0 1 0 0 0-2 0-2h-1l0-1c0 0 0 0 0 0s-1-1-1-1c0-2 0-3 0-3s1 0 0 0 0-2 0-2 0 0 0 0 1 1 1 0 0-3 0-3 0 0 0-1 2-2 2-2 1 0 1 0 0 0 0-1 0-1 1-2 1-1 1-1 0 0 0-1 0 0 0 0 0-1 0-1 1-2 0-2 0 0 0-1 0 0-1-1 0 0 0-1 0-1 0-1 0 0 0-1 1-1 1-1 0 0 0 0 1-1 1-1 0 0 0-1 0 1 0 0 0-2 0-2 1 0 1 0 1-1 1-2-1 0 0 0 0-1 1-2 0 0 0 0 0 0 1-1 0 0 0-1 1-1 2-1 1-1 1-1l1 0c0 0 0 0 1-1s0 0 1 0 1-1 1-1h2l1-1c0 0 1 0 1-1s0 0 1 0 1-1 1-1 3 0 3 0 1 0 2 0 0 0 0 1 4 2 4 2l0 1c0 0 0 0 0 0s2 1 2 2 0 0 0 0h5l3 0 0 1 0 1c0 0 1 1 1 1s0 2 1 3 0 1 0 1 0 0 0 1 0 1 1 2 1 2 1 2 1 1 1 1 1 2 1 2 1 3 1 3l0 1 0 2 1 1 0 2c0 1 1 3 1 3s0 0 0 1 0 1 0 1 1 1 1 1 0 1-1 1 1 2 1 2l0 1c0 0 1 1 1 2s1 3 1 3 0 1 1 1 0 2 1 2 1 2 1 2 0 1 0 1 0 3 0 3l0 2c0 0 1 1 1 1s1 3 1 3 1 2 1 2l0 2c0 1 1 3 1 3s0 1 0 1 0 1 0 1 1 2 1 2l1 2c0 0 0 1 0 1s1 1 1 1 0 2 0 2 1 2 1 2 1 1 1 1-1 2-1 2 0 1 1 1 1 2 1 2l1 1c0 0 0 0 0 1s0 1 0 1l1 1v1c0 0-1 1 0 1s0 1 1 1 0 1 0 1 0 0-1 0 0 1 0 1-1 0-1 0l-1 2 0 1 0 2h3l0 2c1 0 1 1 1 1s1 1 1 1 0 1 0 1v1l0 2 0 1 0 1c0 0-1 0-1 1s0 1 0 1l-1 1 0 0v2c0 0 0 1 0 1s-1 2-1 2 0 0 0 0 1 2 1 2l1 0c0 0 0 0 0-1s0-1 0-1l0 0 1-1c0 0 0 0 0 0s1-2 1-2c0 0 0 0 0 0l1-1v-1l0 0 1 0c0 0 0 0 0 0s-1-1 0-1 2 2 2 2 1 1 1 1 0 1 0 1 0 1 0 1l0 1v0c0 0 0 1 0 1s0 2 0 2v1c0 0 0 0 0 0s0 2 0 2l0 1-1 0-1 2c0 0 1 0 0 0s0 2 0 2 0 0 0 1 0 2 0 2v2c0 0 0 0 0 1s1 1 1 1l0 2c0 0 0 0-1 0s0 1 0 1 0 0 0 1-1 1-1 1-1 1-1 1v1l0 1c0 0 0 0 0 1s-1 1-1 1v1l0 1-1 0 0 2-1 2-2 1c0 0 0 1-1 2s-1 1-1 1l0 0-1 1 0 1z" horiz-adv-x="1066.4" />

<glyph glyph-name="uniE61C" unicode="&#xe81b;" d="M55-113c0 0-3-32-6-28-4 3-3 14-2 23 1 8 2 21 3 26 1 6 1 18 3 24 1 6 12 25 15 28 3 3 6 4 6 4s5 0 9 5c3 6 4 9 6 13 1 4 2 10 3 14 1 4 1 6 4 7 4 1 11 1 9 6-3 4-7 4-7 4s3 3 6 8c4 4 12 11 12 16s1 5 3 8c2 3 8 9 10 14 3 4 5 9 3 7-3-2-9-4-10-7-1-3 0-3-2-6-3-2 0-4-3-4s-3-4-3 1c0 5-2 5 0 9 2 3 6 8 10 10 4 2 3 1 8 4 4 3 9 2 11 8 3 5 5 10 11 15 6 5 5 6 10 8 5 3 5 4 8 7 4 3 13 11 14 20 0 10-2 28 2 34 4 5 6 12 9 18 3 6 10 13 11 23 0 9-4 9 1 12 5 3 16 9 22 11 5 1 6 0 9 5s-1 4 8 8c8 5 2-4 10 7 7 10 3 9 8 17 6 7 4 4 7 10 2 5 2 6 4 9 3 3 11 8 11 11 1 4-1 5 2 9 2 5 1 7 5 12 5 5 5 5 7 9s-1 4 5 6c6 2 33 1 47 8 14 7 34 10 35 14 2 3 16 24 23 28 7 5 21 3 45 31 7 9 22 30 27 35 5 4 21 21 14 41-3 4-15 7-10 15 4 9 6 21 5 24-1 4 3 4 3 11-1 6-3 4-2 9 1 5 5 10 5 14 1 3-3 2 1 6 4 4 26 27 27 38 1 11 3 10 2 13-1 4-4 1-1 5 3 3 32 29 32 34s-2 5 2 8c4 2 17 5 20 9 3 3 38 22 44 27 6 6 14 6 18 9 4 3 9 4 11 6 3 1 10 2 13 7 3 6 5 8 10 13 6 6 6 13 11 22 6 9 14 27 16 35 2 8 11 20 11 27 1 7 1 15 3 16 2 1 5-3 8-3s9 0 11 1c3 0 7 2 10 3 3 2 8 6 8 1 0-5-1-6-1-9 0-4 2-9 2-10 1-2 13-11 15-13 3-3 6-6 10-8 4-2 5-2 11-4 5-2 8-4 12-3s19 7 23 11c4 4 5 5 10 0 5-5 7-9 15-8 8 1 10 0 13 4 4 4 9 5 10 9 0 5 4 8 4 5 1-3 6-10 6-13s0-5 4-6c4-2 7-3 10-3s4 2 8 2c5 0 6 1 8-1 1-3 4-6 6-8 2-1 5-1 8-4 3-3 4-7 8-9 3-1 3 1 3-1 0-2-2-3-3-5 0-2-1-3 0-4 1-1 6-2 5-5 0-3-2-3-2-7 0-4-1-4 1-7 1-2 7-9 5-13-2-4-2-6-3-9 0-3-1-6-1-9 1-4 1-7 3-11 2-4 2-4 2-7-1-3-4-10-4-12 0-2 1-7 5-11 4-4 9-3 6-7-3-4-4-5-4-8 1-3 3-4 6-8 4-4 19-17 20-18 1-1 8 0 3-2-6-2-4-4-8-6s-7-2-4-6c2-3 6-7 6-8 0-1 3-3-1-3-4-1-8-3-12-3-4 1-15 0-19 1-5 1-13 3-17 4-3 0-13 0-17 0-4 0-36-2-35-8 2-6 8-15 4-17-3-2-6-3-11-3-5 0-30-11-34-13-3-1-2-10-4-11-2-2-7 0-7-4 0-3 1-7 1-10s-3-2 3-2c6 1 8 1 8-2-1-3-1-7-1-14s3-13 0-13c-3-1-8-2-14-2-7-1-26-4-29-9s-12-15-23-18c-11-3-11-2-15-6-4-5-11-16-16-20-4-5-5-7-6-11-2-4-4-7-8-9-3-1-1-6-9-1s-8 5-13 4c-4 0-41-10-48-8-7 3-13 6-18 3-5-2-14-5-18-8-3-2-8-3-9-5-2-2-9-13-16-16-7-3-16-9-22-14-6-4-15-6-19-10-4-5-2-10-2-12s-6-162-6-162l-190-3-5-151c0 0-9-17-15-18-7-2-3-5-9-5-5 0-11 2-13 1-1-2-22-15-23-19-2-4-3-4-5-9-3-6-3-5-2-9 0-4 0-79 2-87-17 0-227-5-227-5l2-13z" horiz-adv-x="1000" />

<glyph glyph-name="uniE61D" unicode="&#xe81c;" d="M490 59c11 8 23 7 30 21 2 2 1 6 3 7 13 9 40-12 46 17 1 2-1 5-2 6 0 0-15 1-15 1-5 5-6 31-7 38-2 7-8 9-5 16 1 1 23 36 23 36 7 5 32 4 36 11 1 1-3 4-3 6 2 8 19 12 19 22 1 12-15 8-19 15-2 2 3 5 3 8-2 4-7 5-9 8-6 18 7 42 7 44-1 7-20 37-16 43 1 1 4-2 6-3 8-2 54-22 59-20 9 2 33 35 34 45 1 11-11 18-11 26-1 23 37 10 40 27 1 4-8 9-4 15 0 0 9 5 9 6 6 10 17 42 18 53 1 7-6 16-5 23 2 14 8 3 15 5 12 4 19 20 30 24 7 3 18-1 27 2 7 4 37 22 40 30 9 23-32 26-32 33 1 6 14 23 12 27-1 3-7 1-8 3-1 3 6 6 4 9-5 9-11 3-18 7-3 3-2 10-6 11-2 1-2-2-3-3-4-7-9-1-15 2-4 2-23 16-27 14l-2-11c-2-2-30-4-33-3-4 2-3 10-7 11 0 0-15 0-15 0-2 2 8 4 7 6-2 5-8 6-13 8-4 1-19-1-22 2-2 1 3 4 2 5-7 10-24-10-33-2-26 21 28 26 18 39-13 18-57 16-79 6l-7-4c-4-3-21-16-22-22-5-17 13-11 20-14 2 0-3-1-4-1-10-1-13 3-14-7-5-28-16-53-8-80 4-11-23-35-22-45 0-1 7-3 5-6-1-2-16-4-8-11 3-3 16-1 12-2-6-1-27-8-31-12-11-11-17-29-27-42-3-3-13-12-15-17-2-11 16-5 12-16-1-3-5 7-9 6-2 0-3-3-4-5-19-23-38-51-60-71-3-3-16-7-18-11 0-2 3-4 2-6 0-2-3 4-5 5-3 2-8-4-12-4-2 0-4 0-6 1-1 0-4 2-5 0-1-1 5-16 0-23-4-7-14-12-18-19-11-16-17-38-30-52-1-2 11-26 13-29 2-5 9-17 9-22 0-8-17-5 0-7 3 0 5-1 8-1 8-1 22 4 29 2 3-1 6-12 12-10 1 1 4 2 4 4 0 2-5 1-4 2 1 3 6 3 8 5 1 1 1-3 1-4-1-5-4-10-3-15 1-7 15-10 14-11-14-8-28 22-38 26-2 1 2-4 3-6 2-4 5-8 6-12 5-33-29-48-34-65l7-8c3-9-7-19-9-28-1-8 10-1 10-4 0-1-17-8-19-16-7-23-20-43-36-64-4-4-14-8-17-13 0-2 2-3 2-4 5-8 47 4 60-5 6-5 79-52 79-52 13-2 33 13 47 15 2 0 8-1 15-2 6 30 1 65 28 86z" horiz-adv-x="1000" />

<glyph glyph-name="uniE61E" unicode="&#xe81d;" d="M1138 360l-5 3-3 1-1-1-3-3-1 0h-7l-2 0-3 2-2 2-1 3 0 2 0 1 3 1 2 1 0 0 1 0 0 1 0 1 0 1 1 1v0l-7-2-3 1 0 4h1l1-1 1 1 1 1 2 1 1 0 3 2 1 0-1 1-1 0 0 0-1 1-9-4-5-1-5-1-3 0-6-4-2-1-1 0-2 0 0 0-1-1 0-1-1 0-1-1-1-1-2-1-2-1-1 0-1-1-1-2-1 0 0-1-2-2-1 0-1 0 0 0 0 0-1-2 0 0-3-3-2-2-1 0-2 0-1-1-5-5-1-1-2 0-7-4 0-2 0-2 0-2 2-2 1-2 0 0 1 0 2 1 1-1 0 0 1 0 1 1 2-2-1-1 0-1 0 0 1-1 1-3 3 1 2 2 1 3 1 2 6 3 2 1 2-1 3-2 3-2 1-3-2-2 0-2 2-1 0-6 3-3 3-2 8 0 1 0 1 1 1 0 1-1 2-1 0 0 1 0 0-1 1-2 0-1 1 0 1-1 0 0 3-4 0 0 1 0 1 1 0 0 1 1 3 3 9 5 2 3 2 5 0-1 1 0 1 6 3 6 3 4 4 4-1 1 1 2 1 2 1 0 1 1 1 1 1 4 0 1 0 1 1 0 0 1 0 1-1 1 0 1 1 1-3 0z m-164-76l1 1-1 0-1 1-1 0-1 0-1 0-1 2-2 0-1-1-1-1-2 0-2 0-2-2-2-1-1 1-2-2-1 1h0l-3-2-1-1-1-1-1-1v-3l1-5h-2l-1 0-1 0-1 0-1 0-1 0-1-1 1-2 0-1-1-3 0-2 1-1 3-2 0 1 2 1 1-1 1-1 1 0h0l0 0h1l1 0 2-1 1-1 2-1 1 3 1 2 1 2 1 2 1 0 0-1 1 0 1 1 2 1 1 1 3 5 3 2 1 0 0 2 1 2 1 0 1 1-1 3-1 3z m245 92l-2 3 0 2-1 2-1 0-1 0-2 1 2 0 0 2-1 2-1 1 0 0-2 1 0 0-1 1-1 0 0 1-3 2 0 1 0 1 0 1-1-1 0-1-1-2-1 0 0-1-1 1 0 1 0 0 1 1-2 1-1 1 0 2-1-1-1-1-2-1-1 0-3 0-9-1-2 1-6-1-1-2-1-1 0 0v-1l1-1 1-1 2-1 0 0-1-1 0-2 0-2 0-1 3-1 6 1h4l3-1 15-10 6-3 4 1 1 7 0 0 1-1 1 0 0-1h1l-1 2z m-253-138l-2 1-4 6-1 1v0l0 0h0l0-2-1-1-2-1 0 1-1-1 0-1 0 0 1-1v0l-1-2 0 0h0l0-1 0-2 1 0 0 0 3 1 1 1 1 0h1l5-3 3-1 3 2 0 2-3 1-4 0z m40 439l2 0h0l1 0 0 0-1 2-1 2-1 1-1 0-1-2 0-2 2-1z m-242-554l2-2-2 4 0 3 1 3 0 0-1 1 0 1 0 0v0l0 1h-1l1-3-1-4 1-4z m284 443l2 2 18 9 11 7 1 0h1l1 1 0 0 0 1 2 1 0 1 1 0 1 1 0 1 1 0 1 1 3 0 3 1 12 9 5 5 6 4 2 2 1 3 2 4 1 2-1 1-2 1 0 1 0 1 0 2-1 1 0 2 0 3 0 2-1 3-1 1-3 2-2 1 0 2 0 3 1 5 1 2 1 1 8 0 2-1 1 2 0 0 1 1 0 2 1 1 2 4-2 2-1 0-1-1h-1l-1 2-2 0-2-1-1 1 0 1-2 3 0 2v1l0 3-6-1-2 0-3 0-1 0-1 1-1 1-1 1-1 1 0 1-3 0-1 0-1-1-3 1-3-2-1 0h-2l-2-1-1 0-3-3-1-1-2 0-4 0-1 0-2 0-4-3 0-1 0-3 1-1v0l-2-1-2 1-4 1h-2l0-1-1-2-1 0h-1l-1 0-1 1-2 1-2 1-1 2-1 2h-1l-3 0-5 3-1 1-3 1-3 0-5-2-4 1-2-1 0-1-1-2 0 0-3-2-1-1-1-1-2 0-2-1-1 1-1 0-2 2-1 2-1 4-1 2-2 1-1 0-3 0-5 4-1 1-6 0-2 1v0l0 1 0 0 0 0-1-1-1 0h-1l-1 0-1 0 0 0 0 0 0 0-1-3-3-2-6 0 0-1-1-1 0 0-1-1-1 0-5 1-1 1v1l-3 4 2 1 0 0 2 1 0 2-2 1-2 0 0 1 2 3v1l-1 0 0 1 1 1 0 1-1 2-2 4-1 2-2 3-1 1h-1l0 0 0 2-2 0h-11l-3-1-1 0-1 2-1 1-1 2-1 2-1 1-2 1-8 0-1 1-1 1-1 0-1 0-1-1-1 0-1 0-1 2-1 0-2 1-4 3-2 0-2 0-1 0-3 1-2 0-2 0-2-1-1-1 1-3-2-3 1-2 0 0-1-1 0-1 1-1 1-1 1-2 0-2-1-1-1 0-3 0-12 0-1 0-3 0-2-1-2 1 0 0-1 1v0l0 1-2 2-2-1-1-1-3-4-1 0-2 2-1 3-2 1-5 1-1 0-2-1-5-1-7-3-3 0-4 1 0 1-1 0 0 1-2 0-1 1 0 1 0 1 0 0-2 1-1 2-1 2 1 3-2-1-2-1-3 0-1 3-5 3-2 1 0-1-1-1 0 0-1 1-4-4-3-1-2 0-5 2h-2l0-3-1 0-2-1 0 0-1 0v1l0 1-1 0 0 1h-1l-1 0v0l0 1 0 0-3 5-2 1-3 2-1 0-1 0-1 0-1 1 0 1 0 1 0 1v0l-1 5-3 1-7-2-7 1-3 1-3 2-1 2-2 0-3 0-1 1-1 1-1 0-3 0-3 2-3 2-5 1-2 1-1 2-1 1 1 2 2 1-2 1-2-1-2-1-1-3 0-3-1-2-1 0-3 0-2 0-2 2-1 1-1 3 0 1 4 4 1 2 1 3 1 5 0 5-2 2h-2l-1 0-1 0-3 2-3 1h-2l-1-1-1-2 0-1-1-1-2 0-1 0-1 1 0 0-1 2 0 1 0 1v1l-1 0-1 1-1 0-2-1-2 0-1 0-1 0 0 1-1 2-1 1-2 2v1l0 3 0 3-1 1-3-2-4-3-3-1 0-1 1-1 0 0-1-1 0 0-1 2-1 1h-2l-1-1-2-1-6-3-2 0-1 0-3-2 0 0 0 1-1 0 0 0-1 0 0 0 0 0-1 0-1 0-1 1 0 1-1 0-1 0-3-1-4 0-3 0-4 1-9 4-1 3-2 1-4 1-5 2-3 0-1 1-1 0-1 0-1 0 0-1v-1l0 0-1-3 0 0 0 3-1 3-1 1-2 2-2 1-1 0-1 0-2-1-5 0-4 0-3 0-1-1v-1h1v-2l-2 0-4-3-1-1-1 0-1-1v0l1-1 0-1 1-3v-1l-4 4-3 1-2-1-1 0-5 1-2 3 0 0-2 0-4 2-5 1-4 1-2 0-2 0-2 0-1 1-1-2-1 1-1 1-1 0 1 1 1 1 0 0 0 1 1 0 1-1 0 0 1 0 1 0 0 0 0 1 0 1 0 1-1 0-6 1-1 1-1 1-1 1-2 0 1 2-3 0-7-2-1-1 0-1-1 0-3-1-1 0 1-1-1 0h0l0-1-1 1 0 0-1 0v-1l0 0 1-1 0-1 0-1-1 0-1 2-1 0 0-1-1-1-1-1-1 0-1-1h-1v1l0 0h0l1 0-1 0 0 1-1 1 1 1 2 1 4 2-3 2-2 0-3 0-3-2 0 1 0 0-2-1-1 1-2-1-3-2v-1l1-1 1 0-1 0h0l-1 0 0-1-2 2-1 0-1 0 0-1-1-1h-4l-2 0-5-2-3-2-11-1-4 1-1-1-1-1h0l-2 1-3 1-2-1-2-1-2 2-21 2-1 0-8 4-6 1-2 1-1 1-1-1-1-1-1 0-6 2-1-1-1 2-2 0-8 1-3 1-7 4-1 1-4 0-1 0-1-1 0-1-1 0 0-1-2-1-1 0-1 1 2 1 1 2 0 2-3 0-18 0-5 0-1 3 0 0-1-2h0l-2 3-5 6-2 1-3 2-1 0-1-1 0-2-1 0h-3l0 0 0-1 1-1-2-1 1-1 0-1 0-1h-10l-2-1-1-1-2 0-1 0-1-1-7 1-2 1-2 2-2 0 0-1-1-1-2 0-2-1-2-1h-4l-5-1-1 1-2 1-1 0 0 0 0-2 0 0h-2l-1 0-1-1-3 2-5 1-4 1-5-3-3 0-3 2-6-1-1 1-9-1-5-1-1-3-1-1-1-1 0-2-1-2h0l-1 2 1 1 0 2 1 1 0 3-1 0-2 1-1 0-1 0-6-1-3 1-2 1h-1l-1-1-1-1-1 0-1 1v1l1 0 0 1 0 0 1 1-5 2-5 8-4 2-7 5-1 0-4 0-1 0-1-1-1-1-1 1-1-2-1-2-1 0 1 2-3 4 0 2-1-1-1 0-1 0 0-1v0l0 0-1-1 0 0-1 1v1l2 3 0 1 0 1 0 1-1 0 0 0-1-2-2-2-1-1-4-1-2-1-1-2-2-1 1 0 0-1 0-1-2 1h-1l-1-1 1-2 0-1-5 0v1l1 0 0 0 0 1 1-1 0 0 1 1 0 1v1l0 1 1 1 0-1 1 0 1 0v1l-2 1 0 3-1 1-3 1-2-3-2-2-2-1-3-1h-3l-1 0-1-1 0-2-1-1 0-1 2-2 0 0-1-1 0 0v-1l0 0 1 0-1 0-1 0-1 1 0 1-13-10-3-1-2 0 0 0-2 0h0l0-1 0-1 1-1 0-1-1-2-1 1 0-2-1-3 0-2 4 0 1 1 1 2 1-1 1 0-1-1 0 0-1 0 6 1 2 0 0 0 0-1 0 0-1-1 0 0-9-1-2-2 2 0 2-3 1 0 3 0 2 0 2-1-2-1-1-1 0-1v-2l0-4v-2l0-2-1 2-1 1-2 2-1 2 0 1-1 1-1 1-2 1-2 1-1-2 0-3 0-1-1-1-2 2-1 1 0 1-5-1-1 0 0-1 0 0-2-1-1-1-1-1 0-1-1-1-5-2-3 2-3-1-3-2-3-1-1 0-4 1-1 0-2 1-3 3-1 1-1 0-1-1 0-1-3-1-4-2-4-2 0 0-1 0 1-1 1-1h0l2-2 1-1 1 0-1-1-2-1-3 0-1 1h-1l-1-1 0-2-2-1-1-1-1-1-1 0h-2l-3 1-3-1-5-4 1-3 1 0 3 2 0-1 2 0 2 0 1 1v-1l-1 0-1-1-1 0 0-1-1 0 0-1 0 0-2-2-1 0-1 0-1 2-1-2-1-1-1-1 0-2-1-1h-1l-1-1 1-3 1-1 1 0-1-1 0-1 0-1 0-1-1-1-1-5-1-1v-1l1-1 1-2 0-1 1 1 1 3 0 1 1 1 1 0 1 0 0-1 0-1 1 0 1 1-1 1v1l1 0 2-2 0-1 2 0 1-1 0 0 0-1-1-1 0-1-1-1 1 0 0-2 0-1 2 0 1-1 1-1-1-2 0-1-1 0h-1l1-2 0-2 1-2 1-1 1 0 2 1 2 2-1 2 2 0 5-1 2 1 2 1 1 1 1 3 2-1 0-2-1-2 0-1-2 0-2-1-2-4-3-1 0 0-1-1 0-1-1 0-1-2 0-2-1-3 0-1-1-2-1-3-1-3 2-1 2-1 0-2 1-3 1-1 1 1 1 1 1 0 0 3 0 1 4 1 1 1-1 1 2 2 2 1-1-1 1-1 1 0 2 3-1 1 1 2 1 3 1-2 1-2 1-1 2-1 2 1 1 1 1 2 0 2h1l-1-3-3-7-1-2-1 0-1-1-1-2 0-1 0-2 1-5-1 0v-2l0-1 0-1-1-1-2 0-1 1-1 1 2 0v1l-1 2-1 0-2 0-2-1-1-1-1-2 1 0 3-1 1 0 1-1 0-3 1-1 2-1 3-1 3 0 2 1 1 1 2 2 2 1 0 0 1 0 0 0 1 0h1l1 0-1-1-1-2-3-1-2-2-3-4-1-1 0-1-3 1-2 0 0-1 0 0 0-1v-4l0-1-1 2h-1v-2l-1-2 0-2 1 1 5-1 1 1 1 1 5 2 2 0 2 1 1 2 1 3 2 1 0 0 1 0 0-1v-4l0-1-1 0-2-1-1-1-3-3-1 0-1 0-4-4-2-2-1-1 0 0-1-1 0-1 0-1-3-1 0-1 0 0 2-1 0-1 0-1-2-1h-4l-1 0 0-3 2-23 0-2 1 0 2 1 1 2 1 0 2 1 2 1 1 2 1 2 1 1 2 1 3 1 1 1 1 1 1 3 1 1 1 1 2 0 3 0 2 1 3 2 2 1 13 2 2 1 2 2 1 1 1 0 1 0 2 0 3 2 0-1 1-2 0-5 0-2 1 0 2 0 1 0 2 1 2-1 1-2 1-1 0-2-1-2-2-1-2-2-3-2-3-6-1-2 0-2 1-2 3-1 1-1 0-2-1-3 8 0 4 1 3 3 1 1 1 1 1 1 2 0h1l1 1 1 2 0 2 2 0 0-3 1-3h3l0 0 0 1 1 1 1 0 2 0 6 1 2 2 2-1 2-2 2 0 4-1-1-3 0-1 2-1 1 0 2 0 2 1 1 1 1 1 0 0 0 1 1 1h0l2-1 1 0 1-1 1-1 1-3 0-1 1 1 3 2 1 1 1 0 3 0 2 0 6 2 3 2 2 3 0 2 0 4 0 1 1 1 1 1 2 1 1 0 3-2 2-2 3-1 3 1 3 2 2-1 2-2 2-1 6 1 2 1 0 4 3-1 3-5 3 0 6 0 3 1 2 2 2-1 1-1 0-2 0-5 0-1 2 0 2-1-1-2-2-10 0-1-1-1 0-1 0-1 0-1 1-1 0-3 1-2 1-2 2-1 1 0 2 1 1 1 0 1 1 0h1l8-1 4-2 4-3 4-4 1-1 1-2-4-6-3-2 0-1 0-1 0-1v-1l-3-5v-1l-3-1-1 0-1-1h0v-1l0-1-1 0 0 0-1 0 0 0-3-5-3-3-3-2-5-2-1-1-6 0-2 0-1-1-3-5 0-2-1-1-3-3-1-1-1-1 1-3-1-2-4-5-1-1-2-1-6 1-2-1 0-2-1-2 0-1 1-2 3-3 1-2 2-5 1-2 0-1 2 0 1-1 0-2 0-1-1-1 0-3 0-1 0-1 0-1 0 0 0-1v-3l0-1 1-4 1-4 0-2v-2l-1-2-2-3 0-2 0-2 1-1 1-1 0-2 1-2 0-1-2-3-2-4 0-4 2-3 3-3-1-3-1-1-4-3 0 0-1-1 0-2 0-1-2-1-1 0-2 0-2 0-4-3-1 0-1-2-1-2-1-2 1-1 1-4 1-2 1 0 2-1 1 0 1-1 2-2 2-2 3-7-1-2-1-1 0-2 0-1-1-3 0 0-1-1 0 0v-1l0-1v-1l0-1 0-2 0-1-2-3-1-1-2-1-1 0-1-2 0-1 1-1 0-1 0-1-1-2-1-1v-1l0-1 0-1-1-3-1 0-13-2-3 0-2 2-1-1-4 0-2 0-1-1-1 0-20 1 1-2 3-8 2-2 2-3 2-2 3-1 1-1 0-3 2-1 2-1 3-1 1-1v-2l0-3-1-2 0-1v-3l0-2 1-2 1-1 5-5-1-3-1-2 1-2 1-2 3-1 2-1 2-1 1-2 0-1-1-2 0-1 1-1 1-1 2 0 1 0 2 2 2 0 3-1 2-1 1-2 1-2 1-2-1-2 1-1 1-1-1-1-1-1-3-6-2-3-2-1 2-2-1-2 0-2 0 0-2-1-1-1-1-1-4-1-1-1-1-1-1-1-1-1-2-1-5-4 0-1-1-1 0-1-1-4 0-2v-2l0 0 1-1 0-1 1 0 0-1-1-1-3-6-2-6-1-1 1-1 0-2-1-1-1-1 1-1 3-2 9-12 1-1 0-1 0-1 1-1 2-1 0 0 4-9 2-2h1l2 0 3 1 1 2 0 0h0l3 0 2 1 2-2-1-3-1-2-1-3-2-4-1-3 0-2-1-2-2-1-6 2-1 1-1-1-1-3-1-1 0 0-2-1-1 0-1 0-1 0-1 0-1 0-3-1 0-1v-1l0-1v-1l-1-2-1-5-2-4-2-4-8-7-2-3-1-3-1-5 0-2-1-1-2-2-1-1 0-1 0 0 0-1 0 0-1-1 0-1v-1l0 0h0l0-2 1-1 0 0 1-1 0-1 2-1 0-1 1-2 0-3 1-2-1-1 2-4 1-9 1-4-1-1 1-3 1-5 1-1 2 0 2 0 2 1 1 1 22 1-2 0-2 1-2 0 8 0 2-1 8-4 2 0-1 1 0 2-2 3v1h2l3 2 4 5-1-2-3-5-1-1 0-1 0-3 2-3 2-1 1 0 4-3 2-1 2-1 2-1 22-16 3-2 2-4 3-7 2-4h3l1 2-1 6 1 3 1 1 4 2 2-2h2l2 1 2 1-2-3-8 0-3-2 0-3 1-4-1-3-2-1-3-1-2-1-1-2-1-2 1-2 1-2 1-2 1-4 1-2 2 0 6-1 1 0 4-3 0-3 0-3 0-2 2 0 2 1 1-1-2-2-1-1-1-1-1 0-2 2 0 1 0 1-1 1-2 2-1 0-1 0 0-1 2-2 2-4 3-3 2-5 2-4 1-2 0-2 1-1 0-2 4-3 2-4 2-3 3-3 3-2 4 1h2l2-1 6-6 2-2 1-2 4-1 2-1 1-1 3 1 1-1 4-2 3-3 1 0 2 1 10 3 0 1 1 0 1 1 0 2 0 0-1 2 0 1 0 0 0 2 0 1 0 2 1 1 0 1h2l2-1 2-1 0-2h2l0 5 1 2 4 6 0 0 0 1-1 1 2 1 1 0 0 1 1 0 0 2 2 4 2 2 2 4 1 2 1 0 2 1 3 0 1 1 4 2 6 2 7 3 1 1 1 0 2 0 11-2 3 0 4 1 2 1 1 0 1 1 1 3 11 7 1 1 0 2 1 1 1 2 1 1 2 4 1 1 2 1 16-2 2 1 11 3 2 0 9-1 9 3 4-1 7-2 3 1 6 1 1 0 1-1 13-4 4 0 4 1 1 2 2 1 1 1 9 1 23-2 3 1 2 0 2-1 2-4 1 0 1 0 1 1 1 0 1 0 2-2 2-1 2 1 1 0 3 0 2 1 1 1 1 0 2 3 2 5 2 3 1 1 8 1 1 0 3-1 0 0 2 0 3 2 2 0 2 0 2-1 3-2 2-2 2-3 3-3 3-1 2 0 2 1 1 1 1 2 1 0 1 1 1 0 0 1 1 2 0 1 1 2 2 0 1 1 1 5 1 1 3 3 1 1 1 0 2 0 1 0 0 1 0 1 0 1 0 1-1 1 1 1 1 3 3 7 1 3 1 3 0 4 2 5 2 3 5 5 3 4 1 2 1 2 1 1 4 3 5 2 1 1 1 0 2 2 1 0h0l1 0 0 0 1 0 0 1 1 4 0 0 1 1 0 1 1 0 0 0 2 1 2 1 4 4 1 1 2 0 4 0 5 2h1l3-1 1-1 0 0 0-1 5-1 2 0-1 1-1 1 1 1 1 1 1 0 2 1 6 0 3-1 3-2 1 0 2 1 1 1 1 0h4l2 1 2 1 2 1 1 0 1 0h1l1 0 0 1 1 1 1 1-1 1-1 1-1-1-2 0-2 1-3 2-1 1-3 6 0 2 1 1 2 1 1 1 2 6 2-3 1 1-1 5 1 1 3 9 1 2 2 2 1 0 1 1 0 3-1 8 1 4 0 2 1 2 1 2 1 1 1 2 2 0 4 0 1 1 1 1 0 10 1 4 3 0 0 2 1 0 1 1 3 0 1 0v1l0 3 1 1 4 4 0 0 1 2 1 1 9 3 2 2 3 1 4 1h4l1 1 1 1 1 2 0 1v2l1 2 1 1 1 0h3l2 1 1 0 1 0 2 0-1 2 1 2 1 0 1 1 1 1 1 0 1 1 1 0 0 0 1 3 1 1 2 1 1 0 2 0 0 1v1l0 2-1 0-1 2-1 0-1 1 1 1 0 0-3 3-3 2-5 1-4 1-2 0-2 2-4 4-3 2-1 2-4 6-3 4-2 6-3 5 0 3 0 1 1 1 1 1-1 1-1 2-4 13-3 8 0 5 0 5 0 5 1 2 3 4 0 1 1 2 1 2 1 2 2 2 1 2 1 2 0 3 1 1 9 15 5 6 3 4 4 8 2 4 6 3 2 3 7 10 4 5 3 4 1 1 2 2 1 2 6 12 3 2 0 3 2 2 1 2 2 2 4 10 2 2 1 2 2 1 7 2 3 1 2-1-4-5-3-1-3 1 1-3 2 0 3 2 2 2 4 5 3 3 5 1 2 1 1 2 0 0 1 1 0 1 0 0-1 1 0 0-1 0-1 2-3 2-2 2-1 1-1 1-1 0 1-1 0-1 0 0h-1l-3 1-2 1 1 3 8 8 5 7 10 10 3 2 4 2 3 0 4 0 1 0 2-1 1 0 0 1 1 1 1 3 1 0 6 2 23 8 7 0 17 5 3 0 1 0 2 1 6 2 6 0 4 1 6 4 3 3 3 3 4 8 2 3 3 2 7 3 5 3z m-481-703l-2-2 1-3 1-2 3 1-1 1-2 5z m-213 63l-1 1-2 1-2 0-1 0 1-3 1-2 1-2 2-2 1 2 4 3 0 3-2-2-2 1z" horiz-adv-x="1220.7" />

<glyph glyph-name="uniE61F" unicode="&#xe81e;" d="M31 484l14 4 8 15-3 14 17 10 1 16-13 5 3 18 10 11 10 1 7 8h19l18-14 9 8 14-4 2-23 20-17 14-2 14-15 13-7v-8l-11-12-16 2-9 5h-14l-6-6-22 1-13-5-7-18-34-17-26-23-1 9 6 19 7 0 13 9-12-2-8 3-7-2-10 6-6 11-1 0z m944 79l-3-4-8-17-16-10-21-10-4-10-20-2-8-6-26 6-8 5h-9l-4 2-13-4-23-1-27-11-22 4-15 10-8-5-25 12-12 2-23 15h-6l-6-8-11 2-11 15-3 16-10 9-8-2-15-15-6 2-5-4-24 22-2 12-4 2-15-8h-21l-9 3-13-3-32 1-15-3-30-13-13-2-24-4-7-9-11-3-11-11-6-4-6-15-6-4 1-7-23-1-34 12h-11l-8-6-14 3-19-5-10 4-16-4-3-9 12-20 18 0 15-3-2-6-27-1-23-7-8-10 4-7 13 4 5-7-10-4-30 0-13 7-15-7-7 11-8-1-11-13-11 1-16 12h-15l-29-22-4-12-5-11 5-8-1-14-4-5 4-8 17 6 5-2 13 3 15 0-15-14 2-10 6-10 0-8-1-6 4-3 12 8 1-7-8-8-16-10 5-4 10-1-10-6-5-11h-7l-7 17-5 3-2-11 4-12-5-6 2-9 10-7 3 5 13-11 9 2 15-8 4-15-10-11 8-7 0-8 9-1 16-15-6-11-10 3-3-7 8-3 20 5h27l-2-6-6-6-14-7-21 1-5-7 8-2 11 4 14 0 7 3v-9l4-4 7 10 9 10 9 1 6-8h9l12-7 6 8 9-1-1-7-5-3 6-8 1-9 14-11 5 2 14-6 16 3 7 5h13l7 7 12-6 7 4-1 15 2 8-2 14 27 3 23-2 32-16h11l20-28 18-11 58 8 18 7h6l2-3 9 6 3 11 27 31 7 2 26-10 16-7 20 4 2 6 14 10 11-3 1-10-10-15-12-10 0-7 12-13-3-9 13-3 14 3 12 4-1 15 8 5 0 24 4 10 30-7 31 12 7 1 10 5 33 3 12-3 7-6 20-4 30-1 2 6 17 5 10 10 23 7h16l12 3 33-2 25 9 18 0 5-4 18 14h15l7 5h26l22-5 17 4 9-5 0-13 10-5 14 4 4 12-6 14-14 25-17 7 1 7-1 19 9 19-5 8-14 2-1 18 2 12-6 24-7 12-1 7 19 1 6 17 7 6-7 12-12 12-12-1-20 1-19 11 0 25 4 20-7 14-12 2-1 8-11 12-11 3-27 23-11 3-9-8-8-2-17 7-6-8-7 2-3 12-8 1z m-820-417l4 5 5 0 2-5-6-2-5 2z m-142 287l10-3 12 3 2 7-6 4-6-5-10 0-2-6z" horiz-adv-x="1220.7" />

<glyph glyph-name="uniE620" unicode="&#xe81f;" d="M469 725c-50 0-97-8-142-23-42-14-79-35-111-60-59-48-91-108-91-171 0-35 10-70 29-102 20-33 51-64 88-89 30-19 50-50 55-85 1-6 2-12 3-18 2 2 5 5 8 8 23 23 55 36 88 36 5 0 10 0 15-1 19-2 39-4 58-4 49 0 97 8 142 23 42 15 79 35 111 61 58 47 91 108 91 171s-33 123-91 171c-32 25-69 46-111 60-45 15-93 23-142 23z m0 125v0c259 0 469-170 469-379s-210-380-469-380c-25 0-49 2-73 5-101-100-217-118-333-121v24c62 31 113 87 113 151 0 9-1 17-2 26-106 69-174 176-174 295 0 209 210 379 469 379z m504-850c0-55 35-103 90-129v-21c-101 2-194 18-281 104-21-3-42-4-63-4-93 0-179 25-248 67 141 1 275 46 376 128 51 41 91 89 119 144 31 57 46 118 46 182 0 10-1 20-1 30 70-58 114-138 114-226 0-102-59-193-151-253-1-7-1-15-1-22z" horiz-adv-x="1125" />

<glyph glyph-name="uniE621" unicode="&#xe820;" d="M813 663v125h-625v-125h-188v-125c0-104 84-188 188-188 19 0 38 3 56 9 45-65 114-111 194-128v-193h-63c-69 0-125-57-125-126h500c0 69-56 126-125 126h-62v193c79 17 148 63 193 128 18-6 37-9 57-9 103 0 187 84 187 188v125h-187z m-625-239c-63 0-114 51-114 114v62h114v-62c0-40 7-77 20-112-7-1-13-2-20-2z m738 114c0-63-51-114-113-114-7 0-14 1-21 2 13 35 21 72 21 112v62h113v-62z" horiz-adv-x="1000" />

<glyph glyph-name="uniE626" unicode="&#xe821;" d="M125 371h750q17 0 30-12t12-30-12-29-30-12h-750q-17 0-29 12t-13 29 13 30 29 12z" horiz-adv-x="1000" />

<glyph glyph-name="uniE627" unicode="&#xe822;" d="M500 746q17 0 30-12t12-30v-333h333q17 0 30-12t12-30-12-29-30-12h-333v-334q0-17-12-29t-30-13-29 13-13 29v334h-333q-17 0-29 12t-13 29 13 30 29 12h333v333q0 17 13 30t29 12z" horiz-adv-x="1000" />

<glyph glyph-name="uniE628" unicode="&#xe823;" d="M440 823c-7-3-11-8-14-15s-3-19-3-35v-319c0-16 1-28 3-35s7-13 14-15 17-5 31-5v-13c-21 1-53 2-97 2-44 0-78-1-101-2v13c14 0 24 2 31 5s11 7 13 15 4 19 4 35v154h-171v-154c0-16 2-28 4-35s7-13 13-15 17-5 32-5v-13c-23 1-56 2-98 2-45 0-79-1-101-2v13c14 0 25 2 31 5s11 7 13 15 4 19 4 35v319c0 16-1 28-4 35s-6 12-13 15-17 4-31 5v13c22-1 56-2 101-2 42 0 75 1 98 2v-13c-15-1-25-2-32-5s-11-8-13-15-4-19-4-35v-152h171v152c0 16-1 28-4 35s-7 12-13 15-17 4-31 5v13c23-1 57-2 101-2 44 0 76 1 97 2v-13c-14-1-25-2-31-5z m558-437c-29 1-78 2-147 2-93 0-163-1-210-2v13c15 0 25 2 32 5s10 7 13 15 3 19 3 35v319c0 16-1 28-3 35s-7 12-14 15-16 4-31 5v13c47-1 117-2 210-2 63 0 108 1 134 2-3-35-4-67-4-95 0-19 0-33 2-44h-15c-4 31-11 56-20 74s-20 31-34 39-31 11-52 11h-26c-13 0-23-1-29-3s-10-6-12-13-3-16-3-30v-159h20c23 0 41 9 52 25s20 37 25 60h15c-2-21-2-41-2-61l0-30c0-22 1-53 4-92h-15c-9 57-35 85-79 85h-20v-162c0-13 1-24 3-30s6-10 12-12 16-4 29-4h32c20 0 37 5 52 14s27 23 37 43 18 47 24 80h14c-1-13-1-31-1-54 0-35 1-67 4-97z m572-1c-13-5-29-8-48-8-25 0-44 5-59 15s-23 29-28 54l-11 64c-4 21-8 38-12 51s-10 22-18 30-18 11-30 11h-42v-148c0-16 1-28 4-35s6-13 13-15 17-5 31-5v-13c-23 1-55 2-97 2-46 0-80-1-101-2v13c14 0 24 2 31 5s11 7 13 15 4 19 4 35v319c0 16-2 28-4 35s-7 12-13 15-17 4-31 5v13c21-1 54-2 97-2 8 0 32 0 72 1l29 0c59 0 104-9 133-29s45-47 45-82c0-20-4-38-13-55s-25-32-46-45-50-21-85-25h0c26-2 47-6 64-13s30-15 40-27 16-27 20-45l14-66c4-17 8-29 12-36s10-10 18-10c6 0 10 1 14 4s8 6 13 11l8-8c-11-13-24-23-37-29z m-233 439c-6-4-10-9-12-17s-3-19-3-34v-158h28c24 0 42 4 56 13s23 22 28 37 8 35 8 56c0 35-7 62-19 80s-33 27-61 27c-12 0-20-1-25-4z m589-1c-6-3-10-8-13-15s-3-19-3-35v-319c0-16 1-28 3-35s7-13 13-15 17-5 32-5v-13c-23 1-56 2-97 2-46 0-80-1-102-2v13c15 0 25 2 31 5s11 7 14 15 3 19 3 35v319c0 16-1 28-3 35s-7 12-14 15-17 4-31 5v13c22-1 56-2 102-2 41 0 74 1 97 2v-13c-15-1-25-2-32-5z m591-91c0-21 1-37 2-49h-14c-8 36-16 64-26 85s-23 36-37 45-32 13-53 13h-14v-367c0-18 2-31 5-39s10-14 20-17 24-4 44-4v-13c-37 1-78 2-123 2-44 0-83-1-117-2v13c20 0 35 1 44 4s16 9 19 17 6 21 6 39v367h-15c-20 0-38-4-52-13s-27-24-37-45-19-49-26-85h-15c1 12 2 28 2 49 0 32-2 68-5 109 39-1 105-2 199-2 93 0 159 1 198 2-3-40-5-76-5-109z m539-323c8-7 15-10 22-10v-13c-26 1-58 2-98 2-44 0-76-1-98-2v13c16 0 28 2 35 6s10 9 10 17c0 8-2 18-7 31l-39 105h-139l-18-44c-11-31-17-54-17-72 0-16 5-27 14-33s24-10 43-10v-13c-29 1-56 2-80 2-20 0-37-1-49-2v13c21 4 40 26 56 67l146 376c7 0 14-1 22-1s15 1 22 1l156-402c6-14 12-25 19-31z m-243 335l-67-173h131l-64 173z m686 95c18-7 36-17 54-31 4-4 9-6 12-6 5 0 8 3 11 9s4 17 5 30h15c-2-29-2-81-2-156h-15c-3 29-8 53-15 71s-18 33-33 46c-11 10-24 17-39 23s-30 8-46 8c-30 0-54-10-74-30s-35-48-44-81-15-70-15-110c0-148 41-222 124-222 18 0 33 4 45 12 6 4 10 9 12 14s4 12 4 20v63c0 20-2 35-5 44s-10 16-18 19-23 6-42 6v13c25-1 61-2 110-2 39 0 68 1 86 2v-13c-9 0-15-2-19-5s-6-7-8-14-2-19-2-36v-127h-13c0 9-2 17-5 25s-8 12-14 12c-7 0-18-5-34-14-38-21-73-32-106-32-49 0-91 9-126 27s-60 45-77 79-26 76-26 125c0 48 10 90 29 127s48 65 83 85 75 30 120 30c27 0 49-4 68-11z m641-453c-29 1-78 2-147 2-93 0-163-1-209-2v13c14 0 25 2 31 5s11 7 13 15 4 19 4 35v319c0 16-1 28-4 35s-7 12-13 15-17 4-31 5v13c46-1 116-2 209-2 63 0 108 1 134 2-2-35-4-67-4-95 0-19 1-33 2-44h-15c-4 31-11 56-20 74s-20 31-34 39-31 11-51 11h-27c-13 0-22-1-28-3s-10-6-13-13-3-16-3-30v-159h21c23 0 40 9 52 25s20 37 24 60h15c-1-21-2-41-2-61l0-30c0-22 1-53 4-92h-15c-8 57-34 85-78 85h-21v-162c0-13 1-24 3-30s7-10 13-12 15-4 28-4h32c20 0 38 5 52 14s28 23 38 43 18 47 23 80h15c-1-13-2-31-2-54 0-35 1-67 4-97z m800 373c0-22 0-39 2-53h-15c-3 33-8 58-13 74s-14 28-27 35-32 11-59 11h-35v-366c0-17 2-30 5-39s10-14 18-17 23-5 42-5v-13c-22 1-54 2-94 2-43 0-75-1-95-2v13c19 0 33 2 41 5s15 9 19 17 5 22 5 39v366h-35c-27 0-46-4-59-11s-22-19-27-35-10-41-13-74h-15c1 14 2 31 2 53 0 25-1 52-5 82 36-1 96-2 182-2 85 0 145 1 180 2-3-31-4-58-4-82z m491 63c30-18 54-45 71-80s25-77 25-125c0-47-9-89-26-125s-41-65-72-85-67-30-106-30c-41 0-77 9-107 27s-55 45-72 81-25 76-25 125c0 47 9 89 26 125s42 65 73 85 66 30 105 30c41 0 77-9 108-28z m-183-12c-21-19-37-46-48-80s-17-74-17-118c0-44 6-84 19-118s30-60 51-78 46-28 72-28c28 0 52 10 73 29s36 46 48 80 17 73 17 118c0 44-7 83-19 117s-30 60-51 79-46 27-72 27c-28 0-52-9-73-28z m810 12c-7-4-12-10-15-18-2-9-4-21-4-38v-193c0-31-2-57-6-79-4-22-11-41-20-57-11-19-27-33-47-44-21-11-45-16-71-16-47 0-83 11-108 35-12 12-22 24-29 37s-12 30-14 49-4 43-4 73v202c0 16-2 28-4 35s-8 12-15 15-18 4-33 5v13c18-1 45-2 82-2 34 0 62 1 82 2v-13c-16-1-27-2-34-5s-12-8-14-15-4-19-4-35v-213c0-34 2-63 7-85s14-41 29-55 36-21 65-21c46 0 77 15 96 44s27 70 27 123v200c0 16-1 28-5 37-4 9-10 15-18 18-8 4-20 6-35 7v13c16-1 37-2 66-2 25 0 45 1 59 2v-13c-15-1-26-3-33-6z m578-436c-10-6-23-9-39-9-17 0-32 5-43 15s-20 28-26 54l-14 64c-5 23-10 40-14 52-5 12-12 22-21 29-9 7-21 11-38 11h-61v-148c0-16 2-28 4-35 3-7 8-13 15-15 7-3 18-5 33-5v-13c-19 1-47 2-81 2-37 0-65-1-83-2v13c16 0 27 2 34 5 7 2 12 8 15 15 2 7 4 19 4 35v319c0 16-2 28-4 35-3 7-8 12-15 15-7 3-18 5-34 5v13c18-1 45-2 79-2 7 0 31 0 70 1l27 0c33 0 62-4 85-14s41-23 52-40 18-36 18-57c0-17-4-34-12-51s-21-32-40-46-43-22-73-27l8-1c19-3 35-8 46-15s21-15 28-26c6-11 12-26 16-44l16-66c3-13 5-23 8-31 3-7 6-12 10-16 4-4 9-5 15-5 7 0 13 1 18 5s10 10 17 19l10-7c-10-15-20-25-30-32z m-238 438c-7-4-11-9-14-17s-4-19-4-34v-158h44c29 0 51 4 67 13s28 22 34 37 10 35 10 56c0 35-9 62-25 80s-44 27-82 27c-13 0-23-1-30-4z m597 21c9-2 17-5 23-8s14-8 21-13c10-6 17-9 22-9 4 0 7 2 9 7s4 12 5 21h15c-2-25-3-68-3-131h-15c-2 22-6 43-14 61-8 19-20 34-35 45-15 12-34 18-56 18-15 0-29-3-41-10s-21-15-28-26-10-24-10-39c0-16 4-30 11-42 8-12 17-22 29-31 11-9 28-20 49-33l19-12c27-16 48-31 64-44s28-27 38-43 14-35 14-57c0-27-6-49-18-67s-29-32-49-42c-21-9-44-13-70-13-20 0-37 2-50 6s-26 10-38 18c-9 6-16 9-21 9-4 0-8-3-10-7s-3-12-5-22h-14c1 24 2 75 2 154h15c3-43 13-78 32-105s47-40 85-40c15 0 28 3 41 9 13 6 23 15 31 28 8 13 11 29 11 48 0 17-4 32-12 45-8 13-19 25-33 36s-32 23-55 37c-25 15-46 29-61 41s-28 26-38 43c-10 17-15 37-15 60 0 24 5 44 16 61 11 17 26 29 44 38 18 8 39 12 60 12 14 0 25-1 35-3z" horiz-adv-x="7113.3" />

<glyph glyph-name="uniE629" unicode="&#xe824;" d="M1552 78h92c9 0 16-2 23-5 7-4 13-8 18-14 4-6 8-13 10-20 3-8 4-16 4-24 0-10-2-21-7-32s-10-20-18-28c-8-9-17-15-27-21s-22-7-33-7h-50l-16-77h-44l48 228z m67-113c4 0 9 2 13 4s8 6 11 10c3 4 6 9 8 14 2 6 3 12 3 19 0 9-2 15-6 20s-9 7-15 7h-45l-16-74h47z m200-115l49 228h96c8 0 16-2 23-5 7-4 13-8 17-14 5-6 9-13 11-20 3-8 4-16 4-24 0-8-1-16-4-24s-7-16-12-23c-4-7-10-13-17-19-6-6-13-10-21-13l31-86h-50l-27 76h-40l-16-76h-44z m120 115c4 0 8 2 12 4s8 6 11 10 6 9 8 14c2 6 3 12 3 18 0 8-2 15-6 20-4 6-9 8-14 8h-50l-16-74h52z m257 113h44l-48-228h-45l49 228z m190 0h46l20-172 93 172h46l-132-228h-37l-36 228z m415 0h39l34-228h-46l-7 57h-74l-31-57h-45l130 228z m19-140l-10 90-49-90h59z m290 101h-68l8 39h181l-9-39h-68l-40-189h-44l40 189z m271 39h148l-8-39h-104l-11-55h89l-7-36h-90l-13-59h107l-8-39h-151l48 228z m548-39h-69l8 39h181l-8-39h-68l-41-189h-44l41 189z m222-189l49 228h96c9 0 16-2 23-5 7-4 13-8 18-14 4-6 8-13 10-20s4-16 4-24c0-8-1-16-4-24-3-8-7-16-11-23-5-7-11-13-17-19s-14-10-22-13l31-86h-50l-27 76h-40l-16-76h-44z m120 115c4 0 8 2 12 4s8 6 12 10 5 9 7 14 4 12 4 18c0 8-2 15-6 20-4 6-9 8-15 8h-50l-15-74h51z m319 113h39l33-228h-45l-7 57h-74l-31-57h-45l130 228z m19-140l-10 90-49-90h59z m225 140h46l20-172 93 172h46l-132-228h-37l-36 228z m354 0h147l-8-39h-104l-11-55h89l-7-36h-90l-13-59h107l-8-39h-151l49 228z m307 0h44l-40-189h109l-8-39h-153l48 228z" horiz-adv-x="7113.3" />

<glyph glyph-name="dst-g-1" unicode="&#xe825;" d="M851 196c0-85-58-149-170-202-85-38-165-54-245-54 0 0-5 0-16 0s-16 0-16 0c-122 0-223 48-298 139-74 85-106 186-106 298s37 207 106 292c80 91 187 138 320 144h106c43 0 90-6 149-16 0 0 53-11 149-37-5-11-16-27-43-59-21-32-37-53-48-64-10-21-16-37-21-53 0-5-5-11-16-21v10c0 0 0 11 6 27s5 27 5 32c0 58-43 101-128 128-53 16-106 26-159 26 0 0-11 0-22 0s-21 0-21 0c0 0-5 0-5 0s-6 0-6 0c-16-10-53-21-106-42-106-43-160-133-160-272 0-127 54-239 155-335 101-90 212-133 340-133 75 0 112 32 112 96 0 37-11 69-27 96-10 16-21 32-42 48s-38 26-54 32c-15 0-31 5-58 16 0 5 0 10 11 10l154 11c37 0 74-6 96-21 42-22 58-54 58-96z m899-240c-5-5-32-10-90-10-6 0-11 0-22 0s-16 0-21 0c-42 0-80 16-106 42-16 16-43 54-85 123-16 32-38 64-54 90-21 37-47 64-69 91-16 15-53 26-111 26-11 0-11-5-11-16v-223c0-80 21-123 64-123 5 0 16 0 16-5-27-5-43-5-43-5s-21 0-53 0c-32 0-48 0-48 0-16 0-53-6-106-11 5 5 16 16 32 27 5 10 10 58 10 138l11 165v85c0 0 0 11 0 32s0 32 0 32v245c0 37-11 79-27 122 0 5-5 5-10 11l-22 5c11 5 22 5 27 5h69c27 0 59 0 101 0l133 5c64 0 122-15 170-42 64-37 96-90 96-165 0-48-16-96-42-138-16-27-43-59-75-91-32-26-42-42-48-48 0 0 11-16 32-47 32-43 53-80 64-101 21-38 43-75 69-112 27-43 53-75 80-91 11-5 16-10 32-16 21 6 32 0 37 0z m-282 554c0 58-21 117-64 180-48 70-106 107-170 107-32 0-42 0-42 0l-6-468h85c80 0 133 10 160 32 26 16 37 69 37 149z m1075-506c-22-16-38-37-54-69-10-27-26-48-37-74 0 10-5 26-10 47-11 22-59 32-149 32l-351-10c5 10 10 32 15 69s11 64 11 90l11 149v160c0 0 0 11 0 21 0 16 0 21 0 27v80c0 21 0 63-6 117-5 74-10 117-16 122-10 11-26 16-37 16-26 0-37 0-37 0s0 0 0 5c0 0 0 6 0 6l585 21c-11-21-26-48-37-80 0-5-5-16-11-32 0 0 0 0-5 0 0 0-5 0-5 0 0 5 5 11 5 16 0 16-11 27-37 37-16 11-38 11-48 11-5 0-11 0-11-5-21 10-69 16-138 16-27 0-43 0-53-6s-22-5-22-26c0-16 0-32 0-48 0-43-5-112-10-197 0-43 0-69 0-74 26-6 64-6 111-6 80 0 155 11 224 37 5-5 5-5 5-10 0 0-5-16-16-48-16-32-21-53-21-59-5 0-11 6-11 11s-5 16-10 16c-27 16-91 27-192 27-10 0-32 0-74-6-6-5-6-16-6-21v-277c0 0 0-5 0-21 0-11 0-21 0-26 0-16 0-32 6-43 42-11 95-16 170-16h53c27 0 64 5 112 16s80 21 96 32h10l-10-27z m787 0c-21-16-37-37-53-69-11-27-27-48-38-74 0 10-5 26-10 47-6 27-53 38-144 38l-351-11c5 11 11 32 16 69s11 64 11 91l10 149v154c0 0 0 11 0 21s0 21 0 27v80c0 21 0 63-5 117-5 74-11 117-16 122-11 11-27 16-37 16-27 0-37 0-37 0s0 0 0 5c0 0 0 6 0 6l585 21c-11-21-27-48-38-80 0-5-5-16-10-32 0 0 0 0-6 0 0 0-5 0-5 0 0 5 5 11 5 16 0 16-10 27-37 37-16 11-37 11-48 11-5 0-10 0-10-5-22 10-69 16-139 16-26 0-42 0-53-6s-21-5-21-26c0-16 0-32 0-48 0-43-5-112-11-197 0-43 0-69 0-74 27-6 64-6 112-6 80 0 154 11 223 37 6-5 6-5 6-10 0 0-6-16-16-48-16-32-21-53-21-59-6 0-11 6-11 11-5 11-5 16-11 16-26 16-90 27-191 27-11 0-32 0-75-6-5-5-5-16-5-21v-277c0 0 0-5 0-21 0-11 0-21 0-26 0-16 0-32 5-43 43-11 96-16 171-16h53c26 0 64 5 111 16s80 21 96 32h11l-16-27z m941 761c-42-43-74-106-95-181 0 0 0 0-6 0 0 0-5 0-5 0 0 11 0 16 0 27 0 53-37 95-117 133-64 26-128 42-192 42-58 0-117-10-164-37-64-32-102-80-107-144-5-5-10-16-10-37-6-21-6-37-6-48 0 0 0 0 0-10s0-27 0-48c11-123 64-229 165-319 96-91 197-133 303-133 43 0 107 16 176 42 5 0 10-5 16-10-6-11-32-22-85-43-101-37-176-59-208-59 0 0-10 0-26 0s-27 0-32 0c-123 0-229 48-309 144-80 91-117 192-117 314 0 101 16 175 53 229 48 69 112 117 192 154 74 32 149 48 223 48 0 0 43 0 133-6l213-42v-16z m788-761c-22-16-38-37-54-69-10-27-26-48-37-74 0 10-5 26-11 47-10 22-58 32-148 32l-352-10c6 10 11 32 16 69s11 64 11 90l11 149v160c0 0 0 11 0 21s0 21 0 27v80c0 21 0 63-6 117-5 74-10 117-16 122-10 11-26 16-37 16-26 0-37 0-37 0s0 0 0 5c0 0 0 6 0 6l585 21c-11-21-27-48-37-80 0-5-5-16-11-32 0 0 0 0-5 0 0 0-5 0-5 0 0 5 5 11 5 16 0 16-11 27-37 37-16 11-38 11-48 11-6 0-11 0-11-5-21 10-69 16-138 16-27 0-43 0-53-6s-16-5-16-26c0-16 0-32 0-48 0-43-6-112-11-197 0-43 0-69 0-74 27-6 64-6 112-6 80 0 154 11 223 37 5-5 5-5 5-10 0 0-5-16-15-48-16-32-22-53-22-59-5 0-10 6-10 11-6 11-6 16-11 16-27 16-90 27-192 27-10 0-31 0-74-6-5-5-5-16-5-21v-277c0 0 0-5 0-21 0-11 0-21 0-26 0-16 0-32 5-43 43-11 96-16 170-16h53c27 0 64 5 112 16s80 21 96 32h11l-16-27z" horiz-adv-x="5106.4" />

<glyph glyph-name="southamerica-1" unicode="&#xe826;" d="M504 838c-267 0-484-217-484-486 0-268 217-485 485-485s485 217 485 485c0 269-217 486-486 486z m0-922c-240 0-436 196-436 436s196 438 436 438 437-196 437-437-195-437-437-437z m-4 361h115v-63c-21-23-65-38-105-38-96 0-171 75-171 171s77 173 170 173c48 0 93-18 125-51l11-11 42 42-11 10c-44 44-102 69-167 69-129 0-229-102-229-233 0-126 105-229 236-229 57 0 111 21 164 65l8 5v142h-188v-52z" horiz-adv-x="1000" />

</font>
</defs>
</svg>
